<svg width="497" height="497" viewBox="0 0 497 497" fill="none" xmlns="http://www.w3.org/2000/svg">
<path d="M389.707 71.039C393.044 73.8929 396.313 76.8154 399.555 79.7773C401.902 81.9105 404.29 83.9863 406.688 86.0625C410.848 89.7748 414.449 93.7077 418 98C418.967 99.1316 419.935 100.263 420.902 101.395C428.725 110.658 435.426 120.345 441.649 130.745C442.882 132.802 444.138 134.843 445.398 136.883C457.257 156.535 464.467 178.861 469.312 201.187C469.57 202.373 469.57 202.373 469.833 203.583C470.699 207.794 471.186 211.675 471 216C469.793 215.965 468.587 215.93 467.344 215.895C465.729 215.866 464.115 215.839 462.5 215.812C461.709 215.787 460.917 215.762 460.102 215.736C451.322 215.628 443.858 218.344 437.402 224.531C430.937 231.521 428.789 239.541 429 249C430.383 257.361 434.291 265.76 441.246 270.902C450.828 276.899 460.06 276.429 471 276C472.358 300.585 459.492 328.776 448 350C447.174 351.632 447.174 351.632 446.332 353.297C441.654 362.409 435.979 370.708 430 379C429.391 379.851 429.391 379.851 428.77 380.719C398.185 423.112 353.024 450.627 303 464C301.833 464.318 300.667 464.637 299.465 464.965C244.561 477.872 181.172 467.346 133.262 438.168C121.967 431.078 111.227 423.29 101.422 414.234C99.8279 412.764 98.2135 411.315 96.5781 409.891C79.1409 394.675 65.2303 376.175 54 356C53.6524 355.382 53.3049 354.763 52.9468 354.126C40.5805 332.008 26.759 301.905 28 276C29.1228 276.035 30.2455 276.07 31.4023 276.105C43.6041 276.375 52.6621 275.643 62 267C67.4763 261.325 69.8922 253.954 70.0625 246.129C69.3553 235.506 66.0814 228.12 58 221C48.9838 214.418 38.6077 215.505 28 216C30.2607 189.145 39.402 163.667 52 140C52.513 139.007 53.0261 138.015 53.5547 136.992C61.362 122.179 71.5132 108.63 82.8477 96.3398C84.9672 94.0357 87.0144 91.68 89.0625 89.3125C92.0682 85.9362 95.1829 82.9004 98.6406 79.9922C100.453 78.4616 102.223 76.9081 103.984 75.3203C113.045 67.2308 122.698 60.4195 133 54C133.652 53.5915 134.303 53.183 134.975 52.7622C151.27 42.6933 169.662 35.4034 188 30C189.102 29.6558 190.204 29.3116 191.34 28.957C258.579 9.90223 335.916 26.889 389.707 71.039ZM337 265C337.928 266.319 338.868 267.63 339.812 268.937C340.596 270.034 340.596 270.034 341.395 271.152C342.959 273.269 342.959 273.269 346 274C347.354 271.291 347.065 268.991 347 266C344.713 264.856 343.407 264.897 340.875 264.937C338.957 264.968 338.957 264.968 337 265Z" fill="#343834"/>
<path d="M389.707 71.039C393.044 73.8929 396.313 76.8154 399.555 79.7773C401.902 81.9105 404.29 83.9863 406.688 86.0625C410.848 89.7748 414.449 93.7077 418 98C418.967 99.1316 419.935 100.263 420.902 101.395C428.725 110.658 435.426 120.345 441.649 130.745C442.882 132.802 444.138 134.843 445.398 136.883C457.257 156.535 464.467 178.861 469.312 201.187C469.57 202.373 469.57 202.373 469.833 203.583C470.699 207.794 471.186 211.675 471 216C469.793 215.965 468.587 215.93 467.344 215.895C465.729 215.866 464.115 215.839 462.5 215.812C461.709 215.787 460.917 215.762 460.102 215.736C451.322 215.628 443.858 218.344 437.402 224.531C430.937 231.521 428.789 239.541 429 249C430.383 257.361 434.291 265.76 441.246 270.902C450.828 276.899 460.06 276.429 471 276C472.358 300.585 459.492 328.776 448 350C447.174 351.632 447.174 351.632 446.332 353.297C441.654 362.409 435.979 370.708 430 379C429.391 379.851 429.391 379.851 428.77 380.719C398.185 423.112 353.024 450.627 303 464C301.833 464.318 300.667 464.637 299.465 464.965C244.561 477.872 181.172 467.346 133.262 438.168C121.967 431.078 111.227 423.29 101.422 414.234C99.8279 412.764 98.2135 411.315 96.5781 409.891C79.1409 394.675 65.2303 376.175 54 356C53.6524 355.382 53.3049 354.763 52.9468 354.126C40.5805 332.008 26.759 301.905 28 276C29.1228 276.035 30.2455 276.07 31.4023 276.105C43.6041 276.375 52.6621 275.643 62 267C67.4763 261.325 69.8922 253.954 70.0625 246.129C69.3553 235.506 66.0814 228.12 58 221C48.9838 214.418 38.6077 215.505 28 216C30.2607 189.145 39.402 163.667 52 140C52.513 139.007 53.0261 138.015 53.5547 136.992C61.362 122.179 71.5132 108.63 82.8477 96.3398C84.9672 94.0357 87.0144 91.68 89.0625 89.3125C92.0682 85.9362 95.1829 82.9004 98.6406 79.9922C100.453 78.4616 102.223 76.9081 103.984 75.3203C113.045 67.2308 122.698 60.4195 133 54C133.652 53.5915 134.303 53.183 134.975 52.7622C151.27 42.6933 169.662 35.4034 188 30C189.102 29.6558 190.204 29.3116 191.34 28.957C258.579 9.90223 335.916 26.889 389.707 71.039ZM231 85C228.938 85.1038 226.876 85.1835 224.812 85.25C216.358 85.8002 208.954 88.202 201 91C200.033 91.3209 199.066 91.6419 198.07 91.9726C191.278 94.3006 184.851 97.3194 178.383 100.414C176.365 101.36 174.323 102.259 172.242 103.055C169.712 103.993 169.712 103.993 167 106.5C164 109 164 109 161.66 109.91C151.541 114.056 142.823 123.549 135 131C134.242 131.693 133.484 132.387 132.703 133.102C120.087 145.027 110.796 159.613 103 175C102.5 175.984 102 176.967 101.484 177.98C95.5759 190.34 91.3143 203.509 89 217C88.7473 218.386 88.7473 218.386 88.4895 219.8C87.0689 228.113 86.6505 236.199 86.6875 244.625C86.6917 245.937 86.6959 247.248 86.7002 248.6C86.8671 263.038 88.811 276.379 93.2305 290.117C93.9923 292.971 94.3782 295.073 94 298C92.75 299.773 92.75 299.773 91 301.375C90.3645 301.967 89.729 302.558 89.0742 303.168C88.3897 303.773 87.7052 304.377 87 305C86.3052 305.615 85.6104 306.23 84.8945 306.863C82.1199 309.294 79.3457 311.715 76.5 314.062C74.7561 316.009 74.7561 316.009 74.4375 319.062C74.7015 322.134 74.7015 322.134 77.125 323.75C83.2035 326.393 88.1173 327.158 94.7063 327.325C108.422 327.802 108.422 327.802 112.742 331.082C114.443 333.972 115.69 336.914 117 340C118.552 342.275 120.102 344.416 121.812 346.562C122.266 347.137 122.72 347.711 123.187 348.302C132.849 360.218 143.947 371.867 157.128 379.86C159.357 381.217 161.553 382.622 163.754 384.023C173.271 389.997 182.209 394.758 193 398C194.27 398.425 195.538 398.857 196.805 399.293C200.522 400.574 204.256 401.798 208 403C208.933 403.3 209.867 403.601 210.828 403.91C234.173 410.865 260.331 409.402 284 405C285.35 404.769 286.701 404.539 288.051 404.309C294.494 403.097 299.911 401.392 305.66 398.242C307.965 397.019 310.243 396.094 312.688 395.187C336.035 386.039 358.614 369.255 373.93 349.543C376 347 376 347 378.555 344.535C381.085 341.912 382.591 339.481 384.25 336.25C386.944 331.056 386.944 331.056 388 330C389.308 329.726 390.622 329.481 391.938 329.25C398.604 327.812 404.757 325.298 409.562 320.375C412.838 314.963 412.184 309.446 412.188 303.312C412.2 302.248 412.212 301.184 412.225 300.088C412.233 295.469 412.219 291.177 410.965 286.711C409.923 282.705 410.001 279.367 410.375 275.312C411.029 266.076 411.154 256.852 411.179 247.596C411.185 245.968 411.194 244.34 411.207 242.711C411.31 229.631 410.161 217.309 406.75 204.625C406.535 203.82 406.319 203.014 406.097 202.185C399.088 176.84 385.56 153.898 367.542 134.832C364.088 131.176 364.088 131.176 363 129C361.337 127.995 359.669 126.995 358 126C356.575 124.784 355.179 123.532 353.812 122.25C337.888 107.873 318.413 97.4262 297.864 91.5542C296.184 91.0548 294.526 90.4865 292.871 89.9101C275.736 83.9898 248.429 79.1903 231 85Z" fill="#F0CB4E"/>
<path d="M300 136C301.453 137.738 301.453 137.738 303.25 140.312C305.865 144.019 308.504 147.685 311.254 151.293C318.929 161.408 325.713 171.703 331.811 182.841C332.885 184.792 333.988 186.722 335.105 188.648C344.501 205.339 351.021 223.553 356 242C356.556 243.814 357.118 245.627 357.688 247.438C358.847 251.289 359.668 255.136 360.414 259.086C361.129 262.641 361.968 266.162 362.812 269.688C364.524 276.882 366.159 284.091 367.75 291.312C367.973 292.309 368.196 293.306 368.425 294.333C368.63 295.271 368.835 296.209 369.047 297.176C369.231 298.01 369.415 298.845 369.604 299.704C370 302 370 302 370 306C368.828 306.121 367.656 306.242 366.449 306.367C364.862 306.536 363.275 306.706 361.688 306.875C360.921 306.954 360.155 307.032 359.365 307.113C353.138 307.785 347.208 308.871 341 310C350.57 309.67 360.14 309.34 370 309C370.33 310.65 370.66 312.3 371 314C364.361 315.449 357.814 316.445 351.047 317.035C349.691 317.161 349.691 317.161 348.308 317.288C345.456 317.551 342.603 317.807 339.75 318.062C336.883 318.322 334.016 318.584 331.149 318.847C329.375 319.01 327.601 319.171 325.827 319.328C325.019 319.402 324.211 319.475 323.378 319.551C322.324 319.645 322.324 319.645 321.249 319.741C319.54 319.938 317.839 320.201 316.144 320.493C300.944 322.943 285.147 322.146 269.812 322.133C267.817 322.134 265.821 322.134 263.826 322.136C256.019 322.141 248.212 322.136 240.406 322.129C235.997 322.125 231.588 322.123 227.18 322.121C192.024 322.107 156.869 322.032 121.716 321.594C119.193 321.563 116.67 321.533 114.148 321.503C110.274 321.457 106.4 321.405 102.526 321.347C100.498 321.318 98.4713 321.292 96.4441 321.266C95.2575 321.246 94.0709 321.226 92.8484 321.205C91.8304 321.19 90.8124 321.174 89.7636 321.158C87.0861 321.005 84.6114 320.596 82 320C83.5942 316.088 86.1389 313.628 89.125 310.688C90.0351 309.784 90.9452 308.88 91.8828 307.949C94.1337 305.781 96.4545 303.714 98.8164 301.668C104.077 297.105 109.073 292.268 114.084 287.434C115.166 286.403 115.166 286.403 116.27 285.352C116.915 284.731 117.561 284.111 118.226 283.471C120 282 120 282 123 281C123 280.34 123 279.68 123 279C124.293 277.695 124.293 277.695 126.188 276.125C130.006 272.881 133.705 269.535 137.375 266.125C142.871 261.031 148.419 256 154 251C155.708 249.458 157.417 247.917 159.125 246.375C160.75 244.917 162.375 243.458 164 242C164.771 241.3 165.542 240.6 166.336 239.879C167.05 239.238 167.764 238.598 168.5 237.938C169.129 237.369 169.758 236.801 170.406 236.215C172 235 172 235 174 235C174 234.34 174 233.68 174 233C175.573 231.586 177.211 230.244 178.875 228.938C182.634 225.935 186.279 222.888 189.812 219.625C194.857 215.029 200.183 210.861 205.57 206.68C208.529 204.38 211.429 202.018 214.312 199.625C219.161 195.64 224.095 191.772 229.062 187.938C229.814 187.352 230.565 186.767 231.339 186.165C232.043 185.624 232.747 185.084 233.473 184.527C234.42 183.796 234.42 183.796 235.387 183.051C237 182 237 182 239 182C239 181.34 239 180.68 239 180C240.927 178.501 242.858 177.119 244.875 175.75C250.647 171.737 256.229 167.538 261.75 163.188C268.66 157.756 275.694 152.538 282.847 147.432C287.497 144.108 292.046 140.699 296.469 137.074C298 136 298 136 300 136ZM337 265C337.928 266.319 338.868 267.63 339.812 268.938C340.596 270.034 340.596 270.034 341.395 271.152C342.959 273.269 342.959 273.269 346 274C347.354 271.291 347.065 268.991 347 266C344.713 264.856 343.407 264.897 340.875 264.938C338.957 264.968 338.957 264.968 337 265Z" fill="#EECA4E"/>
<path d="M286 96C287.212 96.3127 287.212 96.3127 288.448 96.6318C295.86 98.5977 302.987 100.878 310 104C310 104.66 310 105.32 310 106C308.32 107.508 308.32 107.508 306.125 109.125C305.046 109.933 305.046 109.933 303.945 110.758C302 112 302 112 300 112C299.691 112.619 299.381 113.237 299.062 113.875C298.375 115.25 297.688 116.625 297 118C297.249 121.218 297.518 124.429 297.844 127.641C296.866 131.532 296.312 131.838 293.09 133.949C292.269 134.439 291.449 134.928 290.603 135.432C287.972 137.017 285.59 138.752 283.16 140.629C282.334 141.265 281.508 141.901 280.657 142.556C279.801 143.218 278.945 143.88 278.062 144.562C271.327 149.739 264.543 154.819 257.625 159.75C251.347 164.232 245.264 168.893 239.273 173.752C234.495 177.626 229.616 181.331 224.68 185.004C213.967 192.984 203.561 201.426 193.371 210.062C192.82 210.529 192.268 210.995 191.7 211.475C190.216 212.736 188.737 214.002 187.258 215.27C185 217 185 217 183 217C183 217.66 183 218.32 183 219C181.28 220.539 179.498 222.007 177.688 223.437C173.835 226.452 173.835 226.452 170.27 229.785C169 231 169 231 167 231C167 231.66 167 232.32 167 233C165.602 234.41 165.602 234.41 163.625 236.062C160.417 238.791 157.25 241.551 154.125 244.375C153.285 245.133 152.444 245.891 151.578 246.672C150.727 247.44 149.877 248.208 149 249C145.672 252.006 142.338 255.005 139 258C138.252 258.677 137.505 259.354 136.734 260.051C136.038 260.673 135.342 261.296 134.625 261.937C134.019 262.483 133.413 263.028 132.789 263.59C130.948 265.041 129.129 266.029 127 267C127 267.66 127 268.32 127 269C125.777 270.234 125.777 270.234 123.938 271.75C119.498 275.515 115.246 279.458 111 283.437C110.317 284.077 109.633 284.717 108.929 285.376C107.285 286.916 105.642 288.458 104 290C103.01 289.67 102.02 289.34 101 289C100.086 286.559 100.086 286.559 99.375 283.437C99.0038 281.817 99.0038 281.817 98.625 280.164C97.8909 276.448 97.4259 272.762 97 269C96.67 268.67 96.34 268.34 96 268C92.4913 244.739 94.7103 221.004 102.36 198.869C102.971 197.084 103.545 195.286 104.117 193.488C113.325 165.642 132.572 141.068 155.375 122.937C155.958 122.472 156.541 122.006 157.142 121.527C160.298 119.083 163.209 117.257 167 116C167.99 115.67 168.98 115.34 170 115C170 114.34 170 113.68 170 113C173.987 110.974 177.99 108.98 182 107C183.056 106.474 184.111 105.948 185.199 105.406C192.314 101.976 199.33 99.4516 206.99 97.5327C209.135 96.9641 211.242 96.3078 213.359 95.6445C236.35 88.8541 262.945 90.0452 286 96Z" fill="#C92B2D"/>
<path d="M376 320C378.312 322.188 378.312 322.188 380 325C379.863 330.158 376.648 333.652 373.625 337.562C373.086 338.267 372.548 338.972 371.992 339.698C364 350.018 355.431 359.068 345 367C344.127 367.677 343.255 368.354 342.355 369.051C308.536 394.551 268.785 403.15 227.043 399.68C217.648 398.306 208.632 395.118 199.625 392.188C198.981 391.979 198.338 391.771 197.675 391.556C189.266 388.805 181.587 385.557 174 381C173.334 380.602 172.668 380.204 171.982 379.794C152.992 368.175 136.417 353.538 123.375 335.438C122.937 334.829 122.498 334.221 122.046 333.594C119 329.257 119 329.257 119 327C119.906 327.002 120.813 327.004 121.746 327.006C144 327.05 166.254 327.083 188.508 327.104C199.271 327.114 210.034 327.128 220.796 327.151C230.199 327.171 239.601 327.184 249.003 327.188C253.962 327.191 258.921 327.197 263.88 327.211C283.923 327.269 303.912 327.088 323.934 326.082C324.761 326.04 325.589 325.999 326.442 325.957C340.456 325.244 354.685 324.463 368.312 320.906C372 320 372 320 376 320Z" fill="#C92B2D"/>
<path d="M389.707 71.039C393.044 73.8929 396.313 76.8154 399.555 79.7773C401.902 81.9105 404.29 83.9863 406.688 86.0625C410.848 89.7748 414.449 93.7077 418 98C418.967 99.1316 419.935 100.263 420.902 101.395C428.725 110.658 435.426 120.345 441.649 130.745C442.882 132.802 444.138 134.843 445.398 136.883C457.257 156.535 464.467 178.861 469.312 201.187C469.57 202.373 469.57 202.373 469.833 203.583C470.699 207.794 471.186 211.675 471 216C469.793 215.965 468.587 215.93 467.344 215.895C465.729 215.866 464.115 215.839 462.5 215.812C461.709 215.787 460.917 215.762 460.102 215.736C451.322 215.628 443.858 218.344 437.402 224.531C430.937 231.521 428.789 239.541 429 249C430.383 257.361 434.291 265.76 441.246 270.902C450.828 276.899 460.06 276.429 471 276C472.358 300.585 459.492 328.776 448 350C447.174 351.632 447.174 351.632 446.332 353.297C441.654 362.409 435.979 370.708 430 379C429.391 379.851 429.391 379.851 428.77 380.719C398.185 423.112 353.024 450.627 303 464C301.833 464.318 300.667 464.637 299.465 464.965C244.561 477.872 181.172 467.346 133.262 438.168C121.967 431.078 111.227 423.29 101.422 414.234C99.8279 412.764 98.2135 411.315 96.5781 409.891C79.1409 394.675 65.2303 376.175 54 356C53.6524 355.382 53.3049 354.763 52.9468 354.126C40.5805 332.008 26.759 301.905 28 276C29.1228 276.035 30.2455 276.07 31.4023 276.105C43.6041 276.375 52.6621 275.643 62 267C67.4763 261.325 69.8922 253.954 70.0625 246.129C69.3553 235.506 66.0814 228.12 58 221C48.9838 214.418 38.6077 215.505 28 216C30.2607 189.145 39.402 163.667 52 140C52.513 139.007 53.0261 138.015 53.5547 136.992C61.362 122.179 71.5132 108.63 82.8477 96.3398C84.9672 94.0357 87.0144 91.68 89.0625 89.3125C92.0682 85.9362 95.1829 82.9004 98.6406 79.9922C100.453 78.4616 102.223 76.9081 103.984 75.3203C113.045 67.2308 122.698 60.4195 133 54C133.652 53.5915 134.303 53.183 134.975 52.7622C151.27 42.6933 169.662 35.4034 188 30C189.102 29.6558 190.204 29.3116 191.34 28.957C258.579 9.90223 335.916 26.889 389.707 71.039ZM216 32C213.978 32.3202 211.955 32.6299 209.93 32.9297C208.931 33.0856 207.932 33.2416 206.902 33.4023C204.878 33.7184 202.852 34.0257 200.824 34.3242C194.97 35.2557 189.818 36.6568 184.373 38.9973C182.08 39.9662 179.788 40.7801 177.422 41.5507C165.867 45.317 155.075 49.4965 144.871 56.1718C142.313 57.8004 139.811 59.1098 137.062 60.375C122.739 67.3042 110.286 78.8355 98.75 89.5625C98.0882 90.1757 97.4264 90.7888 96.7446 91.4206C92.1907 95.7068 88.0355 100.225 84 105C83.5066 105.577 83.0132 106.153 82.5049 106.747C66.1546 124.998 66.1546 124.998 58 147C57.34 147 56.68 147 56 147C50.6072 158.451 46.1315 169.997 42.6992 182.176C41.8879 185.048 41.0732 187.83 39.8945 190.574C38.7513 193.674 38.5745 196.521 38.375 199.812C38.3002 200.974 38.2255 202.135 38.1484 203.332C38.0994 204.212 38.0505 205.093 38 206C39.1692 206.254 40.3384 206.508 41.543 206.77C43.0912 207.117 44.6394 207.464 46.1875 207.812C46.9564 207.978 47.7253 208.144 48.5176 208.314C52.8881 209.309 56.2099 210.509 60 213C60.66 213 61.32 213 62 213C62.33 213.99 62.66 214.98 63 216C64.7997 217.71 64.7997 217.71 66.9375 219.375C70.0529 222 72.0094 223.914 73 228C73.66 228 74.32 228 75 228C75.1444 229.072 75.2887 230.145 75.4375 231.25C75.8731 234.7 75.8731 234.7 76.5117 236.797C78.7605 246.943 77.3334 257.123 72 266C65.5195 274.95 57.8965 280.706 47 283C43.672 283.421 40.3446 283.744 37 284C37.431 292.964 39.6989 301.374 42 310C42.66 310 43.32 310 44 310C44.2269 311.196 44.4537 312.392 44.6875 313.625C46.583 322.155 49.3959 330.56 54 338C54.7114 339.984 55.3899 341.982 56 344C56.66 344 57.32 344 58 344C58.2449 344.842 58.4898 345.683 58.7422 346.551C60.1385 350.38 62.005 353.729 64.125 357.187C64.7222 358.171 64.7222 358.171 65.3315 359.174C68.9215 365.011 72.8406 370.554 77 376C77.5736 376.767 78.1473 377.534 78.7383 378.324C82.5406 383.333 86.6309 388.014 90.875 392.652C92.6615 394.626 94.3712 396.633 96.0625 398.687C99.3589 402.55 103.118 405.742 107 409C108.313 410.145 108.313 410.145 109.652 411.312C116.818 417.469 124.328 422.783 132.275 427.883C133.797 428.869 135.301 429.883 136.801 430.902C144.153 435.822 151.976 439.442 160.012 443.079C161.705 443.863 163.372 444.705 165.031 445.559C208.257 467.468 266.163 468.793 311.783 454.104C317.949 451.961 323.981 449.523 330 447C331.435 446.415 332.87 445.831 334.305 445.246C356.633 435.976 379.791 422.207 396.496 404.539C398.08 402.919 399.75 401.501 401.5 400.062C405.444 396.732 408.704 392.961 412 389C412.713 388.152 413.426 387.304 414.16 386.43C419.383 380.14 424.301 373.689 429 367C429.659 366.077 430.317 365.154 430.996 364.203C436.159 356.756 440.154 348.981 444.064 340.838C444.95 339.097 445.965 337.424 446.984 335.758C449.811 330.894 451.308 325.525 453 320.187C454.898 314.268 456.783 308.413 459.203 302.684C460.834 298.704 461.566 295.206 461.75 290.875C461.807 289.759 461.863 288.642 461.922 287.492C461.948 286.67 461.973 285.847 462 285C461.322 284.974 460.644 284.948 459.945 284.922C450.412 284.341 441.036 281.821 434 275C429.707 269.753 426.349 264.356 424 258C423.34 258 422.68 258 422 258C421.292 245.282 421.47 231.136 430 220.75C430.969 219.801 431.967 218.879 433 218C433.846 217.237 434.691 216.474 435.562 215.687C437.98 214.014 440.226 212.951 443 212C443 211.34 443 210.68 443 210C449.325 208.21 455.449 207.458 462 207C459.632 190.232 455.738 175.299 449.148 159.727C448.068 157.162 447.025 154.586 446 152C445.34 152 444.68 152 444 152C443.629 150.742 443.258 149.484 442.875 148.187C429.988 109.827 391.756 77.972 358.102 58.2387C356.159 57.0939 354.234 55.9247 352.312 54.7461C343.875 49.6427 335.284 46.1721 326 43C324.27 42.3932 322.539 41.7864 320.809 41.1797C310.964 37.77 301.271 34.8452 291 33C290.349 32.8757 289.697 32.7515 289.026 32.6235C276.773 30.3039 264.887 29.5538 252.427 29.6638C249.54 29.6877 246.654 29.6843 243.768 29.6777C234.291 29.6917 225.309 30.0824 216 32Z" fill="#2D3433"/>
<path d="M320.188 107.937C322.075 107.968 322.075 107.968 324 108C324 108.66 324 109.32 324 110C324.749 110.264 325.498 110.528 326.27 110.801C341.565 117.519 351.405 142.188 359 156C359.755 157.37 359.755 157.37 360.525 158.767C370.234 176.521 378.796 194.871 385.033 214.145C385.936 216.81 386.946 219.388 388.027 221.984C390.327 227.616 391.958 233.388 393.562 239.25C393.867 240.351 394.171 241.452 394.485 242.586C397.37 253.137 399.701 263.703 401.473 274.5C401.969 277.099 401.969 277.099 402.988 279.918C405.725 288.253 406.215 297.272 406.438 306C406.472 306.705 406.506 307.411 406.542 308.138C406.573 311.934 406.053 314.432 403.746 317.383C399.129 321.783 394.442 322.8 388.188 323.312C385.109 323.011 383.453 322.84 381 321C378.611 317.486 377.369 314.307 376.387 310.187C376.112 309.045 375.836 307.902 375.553 306.725C375.267 305.496 374.982 304.266 374.688 303C374.379 301.7 374.07 300.401 373.761 299.101C371.684 290.289 369.84 281.44 368.062 272.562C362.278 243.977 354.846 215.652 340.975 189.828C339.984 187.97 339.026 186.097 338.074 184.219C330.999 170.396 322.135 158.026 312.773 145.676C300.494 129.457 300.494 129.457 299.562 122.937C300.257 118.276 302.443 116.158 306.164 113.391C310.833 110.197 314.392 107.842 320.188 107.937Z" fill="#F9D07F"/>
<path d="M286 96C287.212 96.3127 287.212 96.3127 288.448 96.6318C295.86 98.5977 302.987 100.878 310 104C310 106 310 106 308.496 107.543C302.964 111.962 302.964 111.962 298.812 112.125C296.657 111.489 294.507 110.836 292.375 110.125C268.255 102.249 240.688 100.899 216 107C215.67 107.33 215.34 107.66 215 108C213.486 108.325 211.963 108.609 210.438 108.875C207.005 109.523 203.869 110.33 200.625 111.625C197 113 197 113 193 113C193 113.66 193 114.32 193 115C192.466 115.231 191.933 115.461 191.383 115.699C188.913 116.78 186.457 117.891 184 119C183.254 119.316 182.507 119.632 181.738 119.957C169.561 125.477 158.653 134.883 149 144C150.207 146.543 151.382 148.495 153.125 150.75C155.364 154.63 155.83 157.665 155 162C153.207 166.726 150.503 170.655 146 173C135.809 174.23 135.809 174.23 131.754 171.473C131.175 170.987 130.596 170.501 130 170C129.34 170 128.68 170 128 170C126.238 173.264 124.493 176.538 122.75 179.812C122.259 180.722 121.768 181.631 121.262 182.568C116.951 190.702 113.178 199.026 111.75 208.187C111.6 209.109 111.451 210.031 111.297 210.98C111.199 211.647 111.101 212.313 111 213C110.34 213 109.68 213 109 213C105.41 234.861 104.427 259.297 110.813 280.727C111 283 111 283 109.566 285.02C108.905 285.611 108.244 286.203 107.563 286.812C106.904 287.417 106.245 288.022 105.566 288.645C105.049 289.092 104.533 289.539 104 290C103.01 289.67 102.02 289.34 101 289C100.086 286.559 100.086 286.559 99.375 283.437C99.0038 281.817 99.0038 281.817 98.625 280.164C97.8909 276.448 97.4259 272.762 97 269C96.67 268.67 96.34 268.34 96 268C92.4913 244.739 94.7103 221.004 102.36 198.869C102.971 197.084 103.545 195.286 104.117 193.488C113.325 165.642 132.572 141.068 155.375 122.937C155.958 122.472 156.541 122.006 157.142 121.527C160.298 119.083 163.209 117.257 167 116C167.99 115.67 168.98 115.34 170 115C170 114.34 170 113.68 170 113C173.987 110.974 177.99 108.98 182 107C183.056 106.474 184.111 105.948 185.199 105.406C192.314 101.976 199.33 99.4516 206.99 97.5327C209.135 96.9641 211.242 96.3078 213.359 95.6445C236.35 88.8541 262.945 90.0452 286 96Z" fill="#EFC84D"/>
<path d="M317.723 174.523C323.064 180.332 325.262 185.735 325.562 193.625C325.103 203.693 320.294 210.248 313 217C310.127 219.021 307.22 220.604 304 222C303.143 222.388 303.143 222.388 302.269 222.785C296.959 225.018 292.286 225.458 286.562 225.375C285.37 225.392 285.37 225.392 284.154 225.41C278.125 225.381 270.928 224.83 266.389 220.443C265.931 219.967 265.472 219.491 265 219C264.237 218.753 263.474 218.505 262.687 218.25C256.242 215.252 252.567 208.384 250 202C248.034 195.529 248.16 188.323 250.816 182.082C254.454 175.684 259.407 168.651 266.543 166.086C267.852 165.734 267.852 165.734 269.187 165.375C272.373 164.694 272.373 164.694 275 163C291.075 159.798 305.884 163.324 317.723 174.523Z" fill="#C12A2D"/>
<path d="M372 320C376 320 376 320 378.312 322.188C380 325 380 325 379.941 327.203C378.583 331.239 376.213 334.215 373.625 337.562C373.086 338.267 372.548 338.972 371.992 339.698C364 350.018 355.431 359.068 345 367C344.127 367.677 343.255 368.354 342.355 369.051C308.536 394.551 268.785 403.15 227.043 399.68C217.648 398.306 208.632 395.118 199.625 392.188C198.981 391.979 198.338 391.771 197.675 391.556C189.266 388.805 181.587 385.557 174 381C173.334 380.602 172.668 380.204 171.982 379.794C152.992 368.175 136.417 353.538 123.375 335.438C122.937 334.829 122.498 334.221 122.046 333.594C119 329.257 119 329.257 119 327C123.529 326.244 127.493 326.02 132 327C135.315 330.007 137.478 333.523 139.854 337.293C148.513 350.183 162.233 361.116 176 368C176 368.66 176 369.32 176 370C176.763 370.206 177.526 370.412 178.312 370.625C181.489 371.809 184.025 373.122 186.938 374.812C202.793 383.684 222.925 388.086 241 389C242.609 389.097 242.609 389.097 244.25 389.195C261.505 389.735 279.808 387.037 296 381C297.921 380.309 299.844 379.624 301.767 378.939C303.581 378.288 305.391 377.621 307.199 376.953C310 376 310 376 312 376C311.67 375.031 311.34 374.061 311 373.062C309.605 367.985 308.453 362.727 311.168 357.941C314.676 353.603 317.688 351.351 323.324 350.754C329.233 350.462 332.519 351.093 337 355C337.33 355.66 337.66 356.32 338 357C351.937 351.069 362.706 334.038 370.465 321.695C370.971 321.136 371.478 320.576 372 320Z" fill="#F0C84D"/>
<path d="M278.938 275.375C284.921 280.361 289.568 286.305 290.301 294.27C290.305 295.439 290.309 296.608 290.312 297.813C290.329 298.974 290.346 300.135 290.363 301.332C289.93 305.709 288.688 308.951 287 313C301.673 312.441 316.339 311.821 331 311C331 311.66 331 312.32 331 313C327.979 313.48 324.958 313.959 321.938 314.438C321.09 314.572 320.242 314.707 319.369 314.846C318.534 314.978 317.7 315.11 316.84 315.246C316.081 315.367 315.321 315.487 314.539 315.611C313.701 315.739 312.863 315.868 312 316C310.474 316.253 310.474 316.253 308.918 316.512C304.51 317.061 300.216 317.175 295.781 317.205C294.432 317.22 294.432 317.22 293.056 317.235C290.086 317.267 287.115 317.292 284.145 317.316C282.044 317.337 279.943 317.358 277.842 317.379C273.421 317.423 269 317.464 264.579 317.503C259.027 317.551 253.475 317.605 247.923 317.661C228.201 317.858 208.479 318.039 188.756 318.084C187.247 318.088 185.738 318.093 184.229 318.101C176.433 318.136 168.743 318.015 161 317C161 316.34 161 315.68 161 315C166.546 314.855 172.092 314.713 177.638 314.573C179.517 314.525 181.397 314.477 183.276 314.427C194.854 314.124 206.418 313.926 218 314C217.539 312.903 217.539 312.903 217.068 311.784C213.689 303.571 212.197 295.867 215.5 287.375C220.281 278.063 227.396 272.019 237 268C251.521 263.887 266.903 266.664 278.938 275.375Z" fill="#C12A2D"/>
<path d="M304 115C304.66 115 305.32 115 306 115C306.33 115.928 306.66 116.856 307 117.812C310.017 124.792 315.185 130.652 319.805 136.633C339.99 162.908 360.086 196.646 365.508 229.844C365.906 232.017 365.906 232.017 366.988 233.863C368.357 236.754 368.641 239.525 369.062 242.688C369.278 246.666 369.278 246.666 371 250C371.459 252.158 371.864 254.328 372.25 256.5C372.514 257.948 372.78 259.396 373.047 260.844C373.196 261.653 373.345 262.463 373.498 263.297C374.471 268.537 375.479 273.769 376.5 279C376.701 280.062 376.903 281.123 377.11 282.217C378.009 286.787 378.944 291.155 380.645 295.5C382.167 299.432 382.259 301.856 382 306C382.66 306 383.32 306 384 306C384.403 306.816 384.807 307.632 385.223 308.473C386.786 311.321 386.786 311.321 389.996 311.559C391.132 311.519 392.267 311.479 393.438 311.438C394.571 311.416 395.704 311.394 396.871 311.371C400.27 311.147 400.27 311.147 404 309C404 303.06 404 297.12 404 291C404.33 291 404.66 291 405 291C405.938 295.859 406.28 300.568 406.375 305.5C406.431 306.6 406.431 306.6 406.488 307.723C406.552 311.688 406.239 314.239 403.75 317.414C399.113 321.774 394.432 322.801 388.188 323.312C385.109 323.011 383.453 322.84 381 321C378.611 317.486 377.369 314.307 376.387 310.188C376.112 309.045 375.836 307.902 375.553 306.725C375.267 305.496 374.982 304.266 374.688 303C374.379 301.7 374.07 300.401 373.761 299.101C371.684 290.29 369.84 281.44 368.062 272.562C362.278 243.977 354.846 215.652 340.975 189.828C339.984 187.97 339.026 186.097 338.074 184.219C330.999 170.396 322.135 158.027 312.773 145.676C300.494 129.457 300.494 129.457 299.562 122.938C300.11 119.259 301.395 117.605 304 115Z" fill="#F1CC50"/>
<path d="M264.125 223.688C269.111 227.655 272.483 231.525 273.441 237.969C273.677 244.097 273.322 248.318 269 253C266.432 255.656 265.305 255.972 261.562 256.313C258.252 256.022 255.966 255.438 253 254C252.711 254.639 252.422 255.279 252.125 255.938C251 258 251 258 249 259C241.315 259.731 235.893 258.795 229.562 254.25C227.298 250.989 227.455 248.884 228 245C230 242.063 230 242.063 232 240C231.361 239.711 230.721 239.423 230.062 239.125C228 238 228 238 227 236C226.234 231.805 226.164 228.374 228.422 224.664C237.645 213.746 253.277 216.329 264.125 223.688Z" fill="#353A37"/>
<path d="M278.938 275.375C284.921 280.361 289.568 286.305 290.301 294.27C290.305 295.439 290.309 296.608 290.312 297.813C290.329 298.974 290.346 300.135 290.363 301.332C289.93 305.709 288.688 308.951 287 313C301.673 312.441 316.339 311.821 331 311C331 311.66 331 312.32 331 313C327.979 313.48 324.958 313.959 321.938 314.438C321.09 314.572 320.242 314.707 319.369 314.846C318.534 314.978 317.7 315.11 316.84 315.246C316.081 315.367 315.321 315.487 314.539 315.611C313.701 315.739 312.863 315.868 312 316C310.474 316.253 310.474 316.253 308.918 316.512C304.51 317.061 300.216 317.175 295.781 317.205C294.432 317.22 294.432 317.22 293.056 317.235C290.086 317.267 287.115 317.292 284.145 317.316C282.044 317.337 279.943 317.358 277.842 317.379C273.421 317.423 269 317.464 264.579 317.503C259.027 317.551 253.475 317.605 247.923 317.661C228.201 317.858 208.479 318.039 188.756 318.084C187.247 318.088 185.738 318.093 184.229 318.101C176.433 318.136 168.743 318.015 161 317C161 316.34 161 315.68 161 315C166.546 314.855 172.092 314.713 177.638 314.573C179.517 314.525 181.397 314.477 183.276 314.427C194.854 314.124 206.418 313.926 218 314C217.539 312.903 217.539 312.903 217.068 311.784C213.689 303.571 212.197 295.867 215.5 287.375C220.281 278.063 227.396 272.019 237 268C251.521 263.887 266.903 266.664 278.938 275.375ZM223 285C220.425 289.234 219.568 292.434 219.562 297.375C219.543 298.435 219.524 299.494 219.504 300.586C219.957 304.961 219.957 304.961 224 312C232.58 312 241.16 312 250 312C250 310.68 250 309.36 250 308C252.02 308.602 254.021 309.273 256 310C256.33 310.66 256.66 311.32 257 312C264.551 313.207 272.367 313.155 280 313C283.914 305.522 286.692 299.415 284.477 291.016C281.557 283.788 274.418 277.191 267.527 273.773C250.708 268.626 234.757 271.668 223 285Z" fill="#373634"/>
<path d="M200.75 259.687C205.274 262.906 207.919 265.427 209 270.937C209.274 274.302 208.9 275.204 207.312 278.437C205.08 280.911 204.253 281.768 201 282C200.34 279.69 199.68 277.38 199 275C197.52 275.308 196.041 275.622 194.562 275.937C193.327 276.199 193.327 276.199 192.066 276.465C190.023 276.808 190.023 276.808 189 278C189.17 282.328 189.689 284.985 192.625 288.125C195 291 195 291 195.125 293.687C193.662 296.695 191.915 297.47 189 299C188.67 299.66 188.34 300.32 188 301C185.118 301.961 183.302 302.106 180.312 302.062C179.1 302.049 179.1 302.049 177.863 302.035C177.248 302.024 176.634 302.012 176 302C175.791 297.088 176.394 292.989 177.555 288.223C178.184 285.084 178.136 282.191 178 279C175.36 278.67 172.72 278.34 170 278C169.222 281.406 168.9 284.508 169 288C166.688 288.25 166.688 288.25 164 288C160.949 284.92 160.544 282.444 160.5 278.187C160.649 272.353 161.87 269.073 166 265C166.742 264.257 167.485 263.515 168.25 262.75C177.154 257.084 190.911 255.147 200.75 259.687Z" fill="#F2CB7D"/>
<path d="M208.063 258.313C208.702 259.199 209.341 260.086 210 261C210.763 262.052 211.526 263.104 212.313 264.188C214.674 268.658 215.03 273.075 214 278C211.655 282.547 208.87 286.141 204 288C202.68 288 201.36 288 200 288C200.268 289.217 200.536 290.434 200.813 291.688C201.184 294.992 201.185 295.712 199.313 298.625C192.56 304.121 184.792 307.688 176.059 307.602C174 307 174 307 172.234 305.289C170.758 302.551 170.691 300.839 170.813 297.75C170.84 296.858 170.867 295.966 170.895 295.047C170.929 294.371 170.964 293.696 171 293C170.004 293.104 170.004 293.104 168.988 293.211C161.938 293.643 161.938 293.643 159.258 291.805C155.2 287.027 154.684 282.389 154.793 276.367C155.378 269.675 158.082 265.113 162.984 260.602C175.739 250.467 194.468 248.047 208.063 258.313ZM167.125 264.438C166.424 265.283 165.723 266.129 165 267C164.237 267.681 163.474 268.361 162.688 269.063C160.018 273.709 160.201 278.765 161 284C162.233 286.37 162.233 286.37 164 288C166.626 288.334 166.626 288.334 169 288C168.988 287.362 168.977 286.724 168.965 286.066C168.956 285.24 168.947 284.414 168.938 283.563C168.926 282.739 168.914 281.915 168.902 281.066C169 279 169 279 170 278C173.065 277.839 175.055 278.019 178 279C178.209 283.912 177.606 288.011 176.445 292.777C175.816 295.916 175.864 298.809 176 302C177.437 302.027 178.875 302.046 180.313 302.063C181.113 302.074 181.914 302.086 182.738 302.098C186.674 301.928 188.386 300.719 191 298C192.32 296.982 193.65 295.978 195 295C194.672 291.387 193.609 289.303 191.438 286.5C189.683 284.166 189.023 283.131 188.5 280.188C189 278 189 278 192 276C194.324 275.606 196.658 275.265 199 275C199.66 277.31 200.32 279.62 201 282C204.253 281.768 205.08 280.911 207.313 278.438C209.42 274.144 209.534 271.494 208 267C204.86 262.105 201.481 259.703 196 258C185.472 256.809 175.465 257.366 167.125 264.438Z" fill="#363B37"/>
<path d="M317.723 174.523C323.064 180.332 325.262 185.735 325.562 193.625C325.103 203.693 320.294 210.248 313 217C310.127 219.021 307.22 220.604 304 222C303.143 222.388 303.143 222.388 302.269 222.785C296.959 225.018 292.286 225.458 286.562 225.375C285.37 225.392 285.37 225.392 284.154 225.41C278.125 225.381 270.928 224.83 266.389 220.443C265.931 219.967 265.472 219.491 265 219C264.237 218.753 263.474 218.505 262.687 218.25C256.242 215.252 252.567 208.384 250 202C248.034 195.529 248.16 188.323 250.816 182.082C254.454 175.684 259.407 168.651 266.543 166.086C267.852 165.734 267.852 165.734 269.187 165.375C272.373 164.694 272.373 164.694 275 163C291.075 159.798 305.884 163.324 317.723 174.523ZM259 179C254.804 184.75 253.421 189.932 254 197C256.573 205.618 261.858 212.427 269.625 216.938C277.823 221.303 288.976 221.323 297.953 219.352C306.387 216.249 314.156 210.779 318.187 202.59C320.188 196.212 320.187 188.916 317.625 182.688C313.831 176.383 307.302 171.5 300.437 169C285.261 165.308 269.732 167.086 259 179Z" fill="#353433"/>
<path d="M351 130C380.881 154.73 400.154 192.224 403.852 230.79C404.346 238.174 404.135 245.606 404 253C401 251 401 251 400.448 248.523C400.29 246.965 400.29 246.965 400.129 245.375C399.037 237.225 396.591 229.737 393.938 222C393.693 221.277 393.448 220.553 393.195 219.808C389.054 207.594 384.461 195.692 379 184C378.54 183.006 378.08 182.011 377.605 180.987C366.253 156.44 366.253 156.44 351.961 133.531C351 132 351 132 351 130Z" fill="#EAC64D"/>
<path d="M244 222.625C250.627 222.676 254.717 224.102 260 228C260.897 228.646 260.897 228.646 261.812 229.305C264.688 231.53 266.991 233.468 268 237C268.336 241.228 268.374 243.967 266.938 247.938C264.219 250.831 261.862 250.781 258 251C258.065 248.982 258.13 246.964 258.195 244.945C258.183 242.761 258.183 242.761 256 241C253.5 240.583 253.5 240.583 251 241C248.976 244.035 248.679 245.194 248.375 248.688C248.3 249.496 248.225 250.304 248.148 251.137C248.099 251.752 248.05 252.366 248 253C242.198 253.363 238.36 252.257 233 250C233 249.01 233 248.02 233 247C235.188 245.203 235.188 245.203 238 243.25C242.303 240.116 242.303 240.116 243.688 235.063C243.318 232.14 243.318 232.14 242 231C239.627 230.582 239.627 230.582 237 231C234.686 232.896 234.686 232.896 233 235C232 234 232 234 231.625 231.75C232.152 227.882 234.135 226.516 237 224C238.829 222.171 241.534 222.699 244 222.625Z" fill="#F1CA7D"/>
<path d="M314 273C318.953 276.669 322.476 281.426 325 287C324.831 290.128 324.241 290.759 322 293C317.872 293.458 313.712 293.324 309.562 293.312C308.404 293.329 307.246 293.345 306.053 293.361C304.943 293.362 303.834 293.363 302.691 293.363C301.163 293.368 301.163 293.368 299.604 293.372C297 293 297 293 295.17 291.629C293.472 289.265 293.541 287.846 294 285C298.391 279.016 306.083 271.223 314 273Z" fill="#3D423A"/>
<path d="M188.437 59.9375C190.643 62.8482 190.44 65.273 190.434 68.8437C189.913 71.4326 189.004 72.3418 187 74C189.475 74.495 189.475 74.495 192 75C192 75.66 192 76.32 192 77C194.31 77.66 196.62 78.32 199 79C199 79.66 199 80.32 199 81C196 83 196 83 192.687 82.8125C189.037 82.0082 186.247 80.8215 183 79C183.33 81.64 183.66 84.28 184 87C182.02 87.33 180.04 87.66 178 88C176.514 85.273 175.7 82.9287 175.187 79.875C174.24 75.1758 172.294 71.4038 169.926 67.2617C168.863 64.6645 169.025 63.5812 170 61C182.769 57.7572 182.769 57.7572 188.437 59.9375Z" fill="#3E4136"/>
<path d="M215.625 217.812C217.067 217.791 217.067 217.791 218.539 217.77C221 218 221 218 223 220C222.806 225.841 220.886 229.468 217.687 234.125C217.296 234.719 216.905 235.314 216.502 235.926C214.169 239.43 211.68 242.749 209 246C206.687 245.875 206.687 245.875 204 245C201.216 240.825 200.42 236.95 200 232C199.912 231.239 199.825 230.479 199.734 229.695C199.563 227.323 199.518 225.331 200 223C204.818 218.62 209.316 217.855 215.625 217.812Z" fill="#393E3A"/>
<path d="M145 286C147 288 147 288 147.336 290.672C146.93 294.693 145.498 297.741 143.625 301.25C143.308 301.874 142.991 302.498 142.664 303.141C141.308 305.762 140.098 307.902 138 310C131.761 310.388 126.197 308.303 121 305C119 303 119 303 118.605 300.594C119 298 119 298 120.801 296.156C137.464 285.168 137.464 285.168 145 286Z" fill="#373D38"/>
<path d="M308.738 229.637C314.005 230.483 318.612 233.074 323 236C322.673 239.074 322.362 240.626 320.18 242.879C307.694 252 307.694 252 304 252C304 252.66 304 253.32 304 254C302.02 254.33 300.04 254.66 298 255C295.738 251.607 295.904 250.299 296.52 246.395C299.944 229.328 299.944 229.328 308.738 229.637Z" fill="#373D3B"/>
<path d="M231.062 45.9375C232.517 45.9684 232.517 45.9684 234 46C234.33 47.65 234.66 49.3 235 51C235.66 51 236.32 51 237 51C238.177 53.078 239.342 55.1615 240.5 57.25C240.834 57.8365 241.168 58.423 241.512 59.0273C243.361 62.3858 244 64.0665 244 68C244.66 68 245.32 68 246 68C246.33 69.65 246.66 71.3 247 73C244.69 73 242.38 73 240 73C239.505 70.525 239.505 70.525 239 68C235.04 68 231.08 68 227 68C227 69.98 227 71.96 227 74C226 75 226 75 222.938 75.0625C221.968 75.0419 220.999 75.0212 220 75C220.541 68.2915 221.89 62.3787 224 56C224.273 55.1428 224.547 54.2855 224.828 53.4023C227.216 46.016 227.216 46.016 231.062 45.9375Z" fill="#3D4136"/>
<path d="M313 57C316.188 57.3125 316.188 57.3125 319 58C319.848 64.567 320.126 70.9455 320.062 77.5625C320.058 78.4758 320.053 79.3891 320.049 80.3301C320.037 82.5535 320.021 84.7767 320 87C318.35 87 316.7 87 315 87C314.34 84.69 313.68 82.38 313 80C309.7 79.34 306.4 78.68 303 78C302.34 78.99 301.68 79.98 301 81C299.02 80.67 297.04 80.34 295 80C295.118 76.1047 296.444 74.3021 299.125 71.6875C299.751 71.0984 300.378 70.5093 301.023 69.9023C303.673 67.3519 306.032 64.5889 308.422 61.7969C308.943 61.2039 309.463 60.6109 310 60C310.744 59.1318 310.744 59.1318 311.504 58.2461C311.998 57.8349 312.491 57.4237 313 57Z" fill="#393D35"/>
<path d="M96 117C96.99 117 97.98 117 99 117C101.832 124.599 104.485 132.013 106 140C106.99 140 107.98 140 109 140C109.083 139.443 109.165 138.886 109.25 138.312C110.226 135.303 111.952 133.378 114 131C116.475 131.495 116.475 131.495 119 132C119.312 134.25 119.312 134.25 119 137C117.348 138.352 115.677 139.68 114 141C112.089 143.596 110.311 146.253 108.551 148.953C107.783 149.966 107.783 149.966 107 151C106.34 151 105.68 151 105 151C97 137.625 97 137.625 97 130C93.3311 132.511 93.3311 132.511 91.1875 136.25C91.1256 136.827 91.0637 137.405 91 138C89.35 137.67 87.7 137.34 86 137C85.3716 135.211 85.3716 135.211 85 133C86.5405 130.464 88.0769 128.213 89.875 125.875C93.2088 121.609 93.2088 121.609 96 117Z" fill="#454737"/>
<path d="M80 165C81.7656 166.137 81.7656 166.137 83 168C83.293 170.918 83.293 170.918 83.1875 174.188C83.1604 175.274 83.1334 176.361 83.1055 177.48C83.0707 178.312 83.0359 179.143 83 180C85.31 180.66 87.62 181.32 90 182C90 184.64 90 187.28 90 190C80.463 188.996 71.5895 183.984 63 180C63.6438 174.592 65.0147 170.291 68.625 166.125C72.2542 164.406 76.0614 164.26 80 165Z" fill="#414336"/>
<path d="M275 48C276.73 48.1151 278.459 48.2426 280.188 48.375C281.15 48.4446 282.113 48.5142 283.105 48.5859C287.183 49.1693 290.067 50.0668 293 53C293.618 56.0792 293.607 58.9197 293 62C290.337 64.7997 288.462 65.8597 284.598 66.2305C282.397 66.2479 280.197 66.1331 278 66C277.67 68.97 277.34 71.94 277 75C274.69 75 272.38 75 270 75C270.396 65.6494 272.576 56.986 275 48Z" fill="#3A3E35"/>
<path d="M333.688 256.625C339.42 256.653 349.8 258.8 354 263C354.575 270.243 353.212 275.498 350 282C349 283 349 283 346.75 283.375C340.586 282.534 335.857 274.43 332.242 269.699C329.559 265.752 328.281 262.915 329 258C330 257 330 257 333.688 256.625ZM337 265C337.928 266.319 338.868 267.63 339.813 268.938C340.596 270.034 340.596 270.034 341.395 271.152C342.959 273.269 342.959 273.269 346 274C347.354 271.291 347.065 268.991 347 266C344.713 264.856 343.407 264.897 340.875 264.938C338.957 264.968 338.957 264.968 337 265Z" fill="#373C38"/>
<path d="M400 163C409.9 163 419.8 163 430 163C431 170 431 170 429.699 171.863C429.035 172.342 428.371 172.82 427.688 173.312C423.087 176.86 419.195 180.849 415.199 185.059C413 187 413 187 410 187C410.095 186.252 410.191 185.505 410.289 184.734C410.455 183.257 410.455 183.257 410.625 181.75C410.741 180.775 410.857 179.801 410.977 178.797C411.002 175.811 410.428 174.551 409 172C409 171.01 409 170.02 409 169C407.02 169 405.04 169 403 169C402.67 168.01 402.34 167.02 402 166C401.34 166 400.68 166 400 166C400 165.01 400 164.02 400 163Z" fill="#373C35"/>
<path d="M380 96C383 96 383 96 384.684 97.6094C385.262 98.3158 385.841 99.0222 386.438 99.75C387.356 100.842 387.356 100.842 388.293 101.957C388.856 102.631 389.42 103.305 390 104C392.995 107.275 392.995 107.275 397 109C397 110.32 397 111.64 397 113C394.127 113.675 391.252 114.34 388.375 115C387.567 115.191 386.759 115.382 385.926 115.578C381.528 116.579 377.544 117.235 373 117C373.954 118.149 374.914 119.294 375.875 120.438C376.409 121.076 376.942 121.714 377.492 122.371C378.922 124.108 378.922 124.108 381 125C381 126.32 381 127.64 381 129C378.957 129.934 378.957 129.934 376 130C373.224 128.021 370.997 125.557 368.688 123.062C368.042 122.39 367.397 121.718 366.732 121.025C365.141 119.363 363.565 117.688 362 116C362.33 115.01 362.66 114.02 363 113C365.041 112.2 365.041 112.2 367.691 111.613C368.636 111.397 369.58 111.181 370.553 110.959C371.546 110.746 372.539 110.532 373.562 110.312C374.56 110.088 375.557 109.863 376.584 109.631C379.054 109.075 381.525 108.532 384 108C383.555 107.541 383.111 107.082 382.652 106.609C382.086 105.996 381.521 105.382 380.938 104.75C380.369 104.147 379.801 103.543 379.215 102.922C378 101 378 101 378.254 98.8281C379 97 379 97 380 96Z" fill="#383C35"/>
<path d="M149.375 74.0625C152.829 75.2959 154.406 77.4063 157 80C159.799 82.2414 162.711 84.3338 165.623 86.4258C167.135 87.5491 168.575 88.7687 170 90C170 90.99 170 91.98 170 93C169.34 93 168.68 93 168 93C168 93.66 168 94.32 168 95C165.614 94.4242 163.333 93.7778 161 93C157.284 93.8544 157.284 93.8544 154 96C153.093 99.5138 153.093 99.5138 153 103C152.34 103.66 151.68 104.32 151 105C150.01 105 149.02 105 148 105C147.879 104.105 147.758 103.211 147.633 102.289C146.743 95.8666 145.793 89.5109 144.367 83.1836C143.948 80.6894 143.74 78.5221 144 76C147 74 147 74 149.375 74.0625Z" fill="#373C35"/>
<path d="M124 92C126.069 96.4887 126.831 100.977 127.625 105.812C127.759 106.601 127.893 107.389 128.031 108.201C128.359 110.133 128.68 112.067 129 114C129.66 114 130.32 114 131 114C132.382 112.374 133.719 110.708 135 109C136.65 109.33 138.3 109.66 140 110C139.581 114.419 136.552 116.75 133.5 119.625C129.797 122.957 129.797 122.957 127 127C126.01 127 125.02 127 124 127C123.834 126.152 123.834 126.152 123.665 125.288C123.159 122.732 122.642 120.178 122.125 117.625C121.951 116.736 121.777 115.846 121.598 114.93C121.424 114.079 121.25 113.228 121.07 112.352C120.913 111.566 120.756 110.781 120.594 109.971C120.107 107.791 120.107 107.791 118 106C117.257 106.66 116.515 107.32 115.75 108C113 110 113 110 109 110C108.074 107.926 108.074 107.926 108 105C109.935 102.365 112.35 100.321 114.812 98.1875C115.468 97.59 116.123 96.9925 116.799 96.377C121.686 92 121.686 92 124 92Z" fill="#3A3E35"/>
<path d="M405 123C408.889 124.296 409.408 125.849 411.5 129.312C413.948 133.352 413.948 133.352 416.719 137.168C418 139 418 139 418 142C410.08 142 402.16 142 394 142C397.284 148.459 397.284 148.459 400 151C400 152.32 400 153.64 400 155C397.707 155.242 397.707 155.242 395 155C393.199 153.32 393.199 153.32 391.688 151.125C390.92 150.046 390.92 150.046 390.137 148.945C389 147 389 147 389 145C388.01 144.67 387.02 144.34 386 144C383.925 141.079 383 139.625 383 136C390.92 136 398.84 136 407 136C405.492 131.279 405.492 131.279 403.375 129.375C402.921 128.921 402.468 128.468 402 128C402 127.01 402 126.02 402 125C402.99 124.34 403.98 123.68 405 123Z" fill="#3D4136"/>
<path d="M340 68C340.99 68 341.98 68 343 68C343 68.66 343 69.32 343 70C344.052 70.3712 344.052 70.3712 345.125 70.75C348.553 72.2406 351.181 73.5089 354 76C354.617 80.3216 354.331 82.8648 353.125 87C350.076 89.8699 347.53 89.4751 343.473 89.3711C340.939 88.9908 339.206 88.2744 337 87C336.01 89.31 335.02 91.62 334 94C332.02 93.67 330.04 93.34 328 93C328.44 87.046 330.244 83.2375 333.438 78.25C333.845 77.5913 334.253 76.9326 334.674 76.2539C336.404 73.4712 338.182 70.7263 340 68Z" fill="#3C4036"/>
<path d="M216 418C218.989 419.143 221.053 420.439 223 423C223.962 426.536 223.906 429.456 223 433C220.322 436.433 218.934 437.664 214.703 438.398C208.816 438.649 208.816 438.649 206.23 436.594C205 435 205 435 205 433C204.34 433 203.68 433 203 433C202.686 427.761 203.192 424.472 206 420C209.787 417.475 211.503 417.475 216 418Z" fill="#3C4036"/>
<path d="M261.062 350.523C264.615 351.397 266.011 353.016 268 356C268.698 358.84 268.698 361.16 268 364C266.011 366.984 264.615 368.603 261.062 369.477C257.139 369.759 255.329 369.219 252 367C249.781 363.671 249.241 361.861 249.523 357.937C250.987 351.986 255.471 350.121 261.062 350.523Z" fill="#F4C94D"/>
<path d="M281 420C284.438 421.937 284.438 421.937 287 425C287.802 428.17 287.782 430.827 287 434C284.47 437.282 282.923 438.692 279 440C276.667 440.04 274.333 440.044 272 440C271.255 433.627 270.897 427.417 271 421C274.653 419.782 277.158 419.609 281 420Z" fill="#3B3F36"/>
<path d="M218 312C218.495 313.485 218.495 313.485 219 315C261.57 315.495 261.57 315.495 305 316C305 316.33 305 316.66 305 317C292.844 317.133 280.688 317.263 268.532 317.391C262.884 317.451 257.235 317.511 251.586 317.573C208.381 318.045 208.381 318.045 188.726 318.088C187.219 318.092 185.712 318.097 184.204 318.104C176.417 318.138 168.734 318.013 161 317C161 316.34 161 315.68 161 315C166.546 314.855 172.092 314.713 177.638 314.573C179.517 314.525 181.397 314.476 183.276 314.427C194.854 314.124 206.418 313.926 218 314C218 313.34 218 312.68 218 312Z" fill="#71693D"/>
<path d="M377 369C381.629 369.656 383.822 372.7 386.75 376.062C387.257 376.63 387.763 377.198 388.285 377.783C389.531 379.182 390.767 380.59 392 382C391.34 383.32 390.68 384.64 390 386C387 385 387 385 385 382C383.68 382.33 382.36 382.66 381 383C381.628 385.929 382.586 388.361 384 391C382.02 391.99 382.02 391.99 380 393C377.963 390.93 375.946 388.846 373.937 386.75C373.357 386.163 372.776 385.577 372.178 384.973C371.633 384.399 371.088 383.825 370.527 383.234C370.019 382.711 369.511 382.187 368.988 381.647C368 380 368 380 368.342 377.798C368.559 377.205 368.776 376.611 369 376C369.99 376 370.98 376 372 376C372.454 376.495 372.907 376.99 373.375 377.5C374.962 379.279 374.962 379.279 377.687 379.188C378.451 379.126 379.214 379.064 380 379C379.526 378.257 379.051 377.515 378.562 376.75C377.221 374.389 376.38 372.663 376 370C376.33 369.67 376.66 369.34 377 369Z" fill="#434537"/>
<path d="M360 387C360.33 388.65 360.66 390.3 361 392C359.02 392.33 357.04 392.66 355 393C354.887 398.083 354.887 398.083 356 403C359.488 402.23 359.488 402.23 363 401C363.33 400.01 363.66 399.02 364 398C362.02 398.33 360.04 398.66 358 399C358.38 396.245 358.807 395.18 360.875 393.25C363 392 363 392 366 392C368.102 395.415 368.568 398.023 368 402C365.451 405.476 363.665 406.783 359.563 408.125C355.815 407.994 353.897 407.352 351.172 404.723C348.907 401.394 348.563 397.943 349 394C351.955 388.294 353.725 386.835 360 387Z" fill="#353A35"/>
<path d="M195 128C197.375 129.625 197.375 129.625 199 132C199.643 135.775 199.268 137.506 197.438 140.875C195 143 195 143 191.5 143.625C188 143 188 143 185.563 140.875C183.772 137.581 183.59 135.694 184 132C186.189 127.623 190.524 127.44 195 128Z" fill="#F3C54C"/>
<path d="M367.551 84.668C370 85 370 85 372 87C372 88.32 372 89.64 372 91C370.35 92.0278 368.68 93.0226 367 94C364.549 96.8136 364.549 96.8136 362.312 100C361.162 101.578 361.162 101.578 359.988 103.188C358.632 105.106 357.303 107.045 356 109C354.68 108.67 353.36 108.34 352 108C351.277 106.328 351.277 106.328 351 104C352.441 101.484 352.441 101.484 354.562 98.75C355.672 97.3095 355.672 97.3095 356.805 95.8398C357.529 94.9027 358.254 93.9655 359 93C359.559 92.1763 360.119 91.3526 360.695 90.5039C361.188 89.7807 361.68 89.0576 362.188 88.3125C362.614 87.6693 363.041 87.026 363.48 86.3633C365 85 365 85 367.551 84.668Z" fill="#393E35"/>
<path d="M202 51C203.675 51.286 205.344 51.6178 207 52C207.182 53.0132 207.364 54.0264 207.551 55.0703C207.804 56.422 208.058 57.7735 208.313 59.125C208.43 59.7902 208.548 60.4553 208.67 61.1406C209.511 65.5384 210.934 69.0518 213 73C213.188 75.875 213.188 75.875 213 78C210.69 78 208.38 78 206 78C205.262 75.5536 204.527 73.1063 203.801 70.6562C203.173 68.5726 202.501 66.5021 201.813 64.4375C200.825 60.2616 200.605 56.2755 201 52C201.33 51.67 201.66 51.34 202 51Z" fill="#3E4136"/>
<path d="M77 147C80.3303 147.294 82.7317 148.326 85.5625 150C88.241 151.558 90.0125 152.522 93 153C93 153.66 93 154.32 93 155C95.97 155.99 98.94 156.98 102 158C102.043 159.666 102.041 161.334 102 163C101 164 101 164 98.875 164.312C94.8425 163.874 92.4249 162.149 89 160C89 159.34 89 158.68 89 158C88.34 157.917 87.68 157.835 87 157.75C83.0096 156.752 79.6145 154.928 76 153C75.9573 151.334 75.9594 149.666 76 148C76.33 147.67 76.66 147.34 77 147Z" fill="#454737"/>
<path d="M152.996 394.559C156.302 395.287 158.374 396.899 161 399C160.67 400.32 160.34 401.64 160 403C159.299 402.67 158.597 402.34 157.875 402C154.719 400.902 152.318 400.774 149 401C147.668 402.112 147.668 402.112 147.812 404.937C147.667 408.109 147.667 408.109 150 410C152.069 410.642 152.069 410.642 154 411C154 412.65 154 414.3 154 416C150.686 415.935 148.028 415.875 145.422 413.656C142.981 410.57 141.652 407.825 141.375 403.875C142 400 142 400 144 397C147.149 394.901 149.207 394.336 152.996 394.559Z" fill="#424436"/>
<path d="M106.375 354.438C110.141 355.244 111.639 357.032 114 360C114 361.32 114 362.64 114 364C112.68 364 111.36 364 110 364C109.67 363.01 109.34 362.02 109 361C106.985 360.267 106.985 360.267 105 360C105.33 360.99 105.66 361.98 106 363C106.232 365.723 106.131 368.25 106 371C105.34 371.66 104.68 372.32 104 373C100.514 372.806 97.7399 372.341 94.5625 370.875C92.2011 368.041 92.7318 365.554 93 362C94.32 362 95.64 362 97 362C97.2681 362.804 97.5363 363.609 97.8125 364.438C98.2044 365.283 98.5963 366.129 99 367C99.99 367.33 100.98 367.66 102 368C101.893 367.397 101.786 366.793 101.676 366.172C100.702 359.679 100.702 359.679 102.125 356.438C104 355 104 355 106.375 354.438Z" fill="#404236"/>
<path d="M306 413C306 414.65 306 416.3 306 418C304.35 418.33 302.7 418.66 301 419C300.67 419.99 300.34 420.98 300 422C302.64 421.67 305.28 421.34 308 421C308 422.32 308 423.64 308 425C306.35 425.33 304.7 425.66 303 426C303 427.32 303 428.64 303 430C306.465 429.505 306.465 429.505 310 429C310 429.99 310 430.98 310 432C306.063 434.197 303.487 435.183 299 435C298.879 434.383 298.758 433.765 298.633 433.129C297.499 427.4 296.286 421.696 295 416C296.268 415.494 297.54 414.995 298.812 414.5C299.52 414.222 300.228 413.943 300.957 413.656C303 413 303 413 306 413Z" fill="#353A35"/>
<path d="M170 405C173.949 405.551 177.349 406.389 181 408C181 409.32 181 410.64 181 412C178.36 411.34 175.72 410.68 173 410C173 411.32 173 412.64 173 414C174.32 414.33 175.64 414.66 177 415C177 416.32 177 417.64 177 419C174.69 418.67 172.38 418.34 170 418C169.67 418.99 169.34 419.98 169 421C171.475 421.99 171.475 421.99 174 423C174 423.99 174 424.98 174 426C170.281 425.493 167.265 424.884 164 423C164.424 417.912 165.623 414.281 168.062 409.797C169.137 407.853 169.137 407.853 170 405Z" fill="#3E4136"/>
<path d="M233 421C236.63 421 240.26 421 244 421C244.33 422.65 244.66 424.3 245 426C242.69 426 240.38 426 238 426C238 426.99 238 427.98 238 429C239.98 429 241.96 429 244 429C244 430.65 244 432.3 244 434C242.02 434 240.04 434 238 434C238 436.31 238 438.62 238 441C236.35 441 234.7 441 233 441C233 434.4 233 427.8 233 421Z" fill="#4B4B38"/>
<path d="M111.992 313.902C112.938 313.904 113.884 313.905 114.859 313.907C117.864 313.912 120.87 313.925 123.875 313.938C125.919 313.943 127.964 313.947 130.008 313.951C135.005 313.962 140.003 313.979 145 314C145 314.99 145 315.98 145 317C128.83 317 112.66 317 96 317C96 316.34 96 315.68 96 315C101.365 313.885 106.542 313.871 111.992 313.902Z" fill="#7B713E"/>
<path d="M392 352C393.32 352.33 394.64 352.66 396 353C396 353.99 396 354.98 396 356C395.34 356 394.68 356 394 356C396.448 361.201 400.402 363.822 405 367C404.67 368.32 404.34 369.64 404 371C400.377 370.416 398.584 368.988 395.938 366.5C393.494 364.212 392.219 363.073 389 362C389 362.99 389 363.98 389 365C387.68 364.67 386.36 364.34 385 364C385.324 358.648 388.497 355.717 392 352Z" fill="#404336"/>
<path d="M121 370C122.32 370.33 123.64 370.66 125 371C124.45 374.843 122.8 376.467 120 379.062C116.766 382.034 116.766 382.034 115 386C116.32 386.66 117.64 387.32 119 388C118.67 389.32 118.34 390.64 118 392C114.564 390.473 111.881 388.401 109 386C109.574 382.501 110.735 380.952 113.312 378.562C116.135 375.868 118.638 373.118 121 370Z" fill="#4D4D38"/>
<path d="M315 409C317.355 409.152 317.355 409.152 320 410C321.363 412.504 321.363 412.504 322.312 415.562C322.639 416.574 322.965 417.586 323.301 418.629C323.532 419.411 323.762 420.194 324 421C326.64 421 329.28 421 332 421C332 422.32 332 423.64 332 425C328.123 426.193 325.084 427 321 427C320.734 426.325 320.469 425.649 320.195 424.953C319.842 424.061 319.489 423.169 319.125 422.25C318.777 421.368 318.429 420.487 318.07 419.578C317.071 417.044 317.071 417.044 315.867 414.922C315 413 315 413 315 409Z" fill="#3B3E35"/>
<path d="M141 292C140.409 296.847 139.021 300.607 137 305C135.742 304.876 134.484 304.752 133.188 304.625C132.48 304.555 131.772 304.486 131.043 304.414C129 304 129 304 126 302C126 301.01 126 300.02 126 299C128.122 297.828 130.248 296.662 132.375 295.5C133.28 294.999 133.28 294.999 134.203 294.488C138.773 292 138.773 292 141 292Z" fill="#DFE0E1"/>
<path d="M213 422.812C216 423 216 423 218 424C218.363 430.408 218.363 430.408 216.812 432.938C214.379 434.364 212.775 434.356 210 434C208 432 208 432 207.75 428.5C208.065 424.086 208.523 423.092 213 422.812Z" fill="#EAC64D"/>
<path d="M310 278C313.313 279.54 315.078 280.828 317 284C317 284.99 317 285.98 317 287C311.72 287 306.44 287 301 287C302.163 283.511 303.14 282.9 306.062 280.812C306.796 280.283 307.529 279.753 308.285 279.207C308.851 278.809 309.417 278.41 310 278Z" fill="#E0E2E2"/>
<path d="M301 178C303 177.957 305 177.959 307 178C308 179 308 179 308.438 181.25C308 184 308 184 305.312 186.813C302.026 188.983 300.802 189.739 297 189C296.34 188.34 295.68 187.68 295 187C295.375 183.875 295.375 183.875 296 181C297.32 181 298.64 181 300 181C300 181.99 300 182.98 300 184C300.99 183.67 301.98 183.34 303 183C303.33 182.34 303.66 181.68 304 181C303.01 181 302.02 181 301 181C301 180.01 301 179.02 301 178Z" fill="#412D32"/>
<path d="M206 224C209.3 224 212.6 224 216 224C214.996 228.016 213.825 229.951 211.438 233.25C210.797 234.142 210.156 235.034 209.496 235.953C209.002 236.629 208.509 237.304 208 238C207.34 237.67 206.68 237.34 206 237C206 232.71 206 228.42 206 224Z" fill="#E3E4E5"/>
<path d="M335 400C335.99 400 336.98 400 338 400C342 406.5 342 406.5 342 411C342.66 411 343.32 411 344 411C344.33 413.31 344.66 415.62 345 418C343.68 418.33 342.36 418.66 341 419C340.588 418.01 340.175 417.02 339.75 416C338.274 412.502 336.531 409.203 334.672 405.895C333.842 403.555 334.201 402.309 335 400Z" fill="#444637"/>
<path d="M136 384C137.32 384.33 138.64 384.66 140 385C139.417 388.918 137.504 391.13 135 394.125C132.218 397.379 132.218 397.379 130 401C128.68 400.67 127.36 400.34 126 400C126.479 395.237 128.495 392.774 131.562 389.188C132.802 387.724 132.802 387.724 134.066 386.23C134.704 385.494 135.343 384.758 136 384Z" fill="#474837"/>
<path d="M266 283C268 282.957 270 282.959 272 283C273 284 273 284 273.375 286.313C273 289 273 289 270.875 291.313C267.561 293.258 265.779 293.504 262 293C261.34 292.34 260.68 291.68 260 291C260.375 288.875 260.375 288.875 261 287C262.32 286.67 263.64 286.34 265 286C265 286.99 265 287.98 265 289C265.66 288.67 266.32 288.34 267 288C266.67 286.35 266.34 284.7 266 283Z" fill="#462D31"/>
<path d="M306 235C309.3 235.66 312.6 236.32 316 237C316 237.99 316 238.98 316 240C315.408 240.326 314.817 240.652 314.207 240.988C310.097 243.261 306.006 245.545 302 248C302.591 243.153 303.979 239.393 306 235Z" fill="#E4E5E6"/>
<path d="M254.438 292.812C257 293 257 293 259 295C258.898 298.053 257.957 299.045 255.812 301.25C252.551 303.28 250.773 303.429 247 303C246 302 246 302 245.938 299.438C245.958 298.633 245.979 297.829 246 297C247.32 296.67 248.64 296.34 250 296C250 296.99 250 297.98 250 299C250.99 298.67 251.98 298.34 253 298C252.34 296.68 251.68 295.36 251 294C252 293 252 293 254.438 292.812Z" fill="#3D2D32"/>
<path d="M234 296C235.65 296 237.3 296 239 296C239.33 297.98 239.66 299.96 240 302C236.932 304.976 235.538 305.965 231.188 306.25C230.136 306.167 229.084 306.085 228 306C227.67 304.35 227.34 302.7 227 301C228.32 300.34 229.64 299.68 231 299C231.99 300.485 231.99 300.485 233 302C233.99 302 234.98 302 236 302C236 301.34 236 300.68 236 300C235.01 300 234.02 300 233 300C233.33 298.68 233.66 297.36 234 296Z" fill="#3C2D32"/>
<path d="M243 280C244.98 280 246.96 280 249 280C249.812 282.188 249.812 282.188 250 285C248 287.812 248 287.812 245 290C241.188 290.312 241.188 290.312 238 290C237.67 288.02 237.34 286.04 237 284C238.32 283.67 239.64 283.34 241 283C241 283.99 241 284.98 241 286C242.65 285.67 244.3 285.34 246 285C246 284.34 246 283.68 246 283C245.01 283 244.02 283 243 283C243 282.01 243 281.02 243 280Z" fill="#3B2D32"/>
<path d="M270 301C272 300.957 274 300.959 276 301C277 302 277 302 277.25 304.375C277 307 277 307 276 308.75C272.792 310.755 269.756 310.758 266 311C265 310 265 310 264.938 307.438C264.958 306.633 264.979 305.829 265 305C266.32 304.67 267.64 304.34 269 304C269 304.99 269 305.98 269 307C269.99 306.34 270.98 305.68 272 305C271.34 304.67 270.68 304.34 270 304C270 303.01 270 302.02 270 301Z" fill="#402D31"/>
<path d="M305 197C306.98 197 308.96 197 311 197C311.688 199.312 311.688 199.312 312 202C310.688 203.812 310.688 203.812 309 205C308.34 205 307.68 205 307 205C307 205.66 307 206.32 307 207C304.125 207.125 304.125 207.125 301 207C300.34 206.34 299.68 205.68 299 205C299.375 202.375 299.375 202.375 300 200C300.99 200 301.98 200 303 200C303 200.99 303 201.98 303 203C304.32 203 305.64 203 307 203C307 202.01 307 201.02 307 200C306.34 200 305.68 200 305 200C305 199.01 305 198.02 305 197Z" fill="#3D2D32"/>
<path d="M278 175C280.375 174.875 280.375 174.875 283 175C283.66 175.66 284.32 176.32 285 177C284.898 180.053 283.957 181.045 281.812 183.25C278.551 185.28 276.773 185.429 273 185C272 184 272 184 271.938 181.438C271.958 180.633 271.979 179.829 272 179C273.32 178.67 274.64 178.34 276 178C276 179.32 276 180.64 276 182C277.32 181.67 278.64 181.34 280 181C280 180.34 280 179.68 280 179C279.34 179 278.68 179 278 179C278 177.68 278 176.36 278 175Z" fill="#3B2D32"/>
<path d="M285 203C286.666 202.957 288.334 202.959 290 203C291 204 291 204 291.375 206.313C291 209 291 209 288.938 211.375C285.175 213.457 283.105 212.966 279 212C279 210.35 279 208.7 279 207C280.32 206.67 281.64 206.34 283 206C283 207.32 283 208.64 283 210C284.32 209.67 285.64 209.34 287 209C287 208.34 287 207.68 287 207C286.01 207 285.02 207 284 207C284.33 205.68 284.66 204.36 285 203Z" fill="#3B2D32"/>
<path d="M268 192C269.98 192 271.96 192 274 192C274.625 194.312 274.625 194.312 275 197C274.01 198.485 274.01 198.485 273 200C272.34 200 271.68 200 271 200C271 200.66 271 201.32 271 202C267.625 202.125 267.625 202.125 264 202C263.34 201.34 262.68 200.68 262 200C262.375 197.375 262.375 197.375 263 195C263.99 195 264.98 195 266 195C266 196.32 266 197.64 266 199C269.122 197.691 269.122 197.691 271 195C270.01 195 269.02 195 268 195C268 194.01 268 193.02 268 192Z" fill="#3A2D32"/>
<path d="M286 189C287.98 189 289.96 189 292 189C292.33 190.65 292.66 192.3 293 194C289.932 196.976 288.538 197.965 284.188 198.25C283.136 198.167 282.084 198.085 281 198C281 196.02 281 194.04 281 192C282.32 191.67 283.64 191.34 285 191C285 192.32 285 193.64 285 195C285.99 194.01 286.98 193.02 288 192C287.34 192 286.68 192 286 192C286 191.01 286 190.02 286 189Z" fill="#412D31"/>
<path d="M358.063 391.938C359.517 391.968 359.517 391.968 361 392C361 392.99 361 393.98 361 395C360.01 395.495 360.01 395.495 359 396C358.67 396.99 358.34 397.98 358 399C359.98 398.67 361.96 398.34 364 398C363.125 401.875 363.125 401.875 362 403C359.063 403.25 359.063 403.25 356 403C353.562 399.343 353.761 397.31 354 393C355 392 355 392 358.063 391.938Z" fill="#DFBE4B"/>
<path d="M161 315C168.92 315 176.84 315 185 315C185 315.33 185 315.66 185 316C192.26 316.33 199.52 316.66 207 317C207 317.33 207 317.66 207 318C202.056 318.025 197.112 318.043 192.168 318.055C190.491 318.06 188.813 318.067 187.135 318.075C178.356 318.12 169.725 318.128 161 317C161 316.34 161 315.68 161 315Z" fill="#746B3D"/>
<path d="M149 118C149.66 118.33 150.32 118.66 151 119C142.75 127.25 134.5 135.5 126 144C125.34 143.67 124.68 143.34 124 143C131.796 134.149 139.718 125.328 149 118Z" fill="#484937"/>
<path d="M154 124C154.66 124.33 155.32 124.66 156 125C148.41 132.59 140.82 140.18 133 148C132.34 147.67 131.68 147.34 131 147C138.231 138.832 145.465 130.828 154 124Z" fill="#CDB049"/>
<path d="M275 424C279.75 424.875 279.75 424.875 282 426C282.125 429.375 282.125 429.375 282 433C281.34 433.66 280.68 434.32 280 435C279.01 435 278.02 435 277 435C275 427.375 275 427.375 275 424Z" fill="#DDBD4B"/>
<path d="M118 377C118.33 377.99 118.66 378.98 119 380C118.288 380.65 118.288 380.65 117.562 381.312C115.763 383.023 115.763 383.023 115 386C116.32 386.66 117.64 387.32 119 388C118.67 389.32 118.34 390.64 118 392C115.156 390.725 112.862 389.549 111 387C111.415 383.637 112.626 382.031 115.062 379.75C115.884 378.969 115.884 378.969 116.723 378.172C117.355 377.592 117.355 377.592 118 377Z" fill="#3E4136"/>
<path d="M359.562 307.707C363.385 308.166 367.154 308.062 371 308C370.67 308.66 370.34 309.32 370 310C354.655 310.495 354.655 310.495 339 311C343.999 306.001 353.014 306.815 359.562 307.707Z" fill="#7E733F"/>
<path d="M360 387C360.33 388.65 360.66 390.3 361 392C359.02 392.33 357.04 392.66 355 393C354.731 397.651 354.731 397.651 356 402C355.01 401.67 354.02 401.34 353 401C353 397.7 353 394.4 353 391C352.34 390.67 351.68 390.34 351 390C354.072 387.269 355.904 386.659 360 387Z" fill="#5E5A3A"/>
<path d="M335 262C342.75 262.75 342.75 262.75 345 265C342.69 265.33 340.38 265.66 338 266C338.954 267.149 339.914 268.294 340.875 269.438C341.676 270.395 341.676 270.395 342.492 271.371C343.922 273.108 343.922 273.108 346 274C346.66 272.68 347.32 271.36 348 270C347.67 271.98 347.34 273.96 347 276C343.29 275.443 341.74 274.052 339.312 271.25C338.711 270.575 338.109 269.899 337.488 269.203C335.845 266.77 335.379 264.888 335 262Z" fill="#E4E5E6"/>
<path d="M110 79C110.66 79.33 111.32 79.66 112 80C105.4 86.6 98.8 93.2 92 100C91.34 99.67 90.68 99.34 90 99C95.7198 91.9711 102.277 86.0341 109 80C109.33 79.67 109.66 79.34 110 79Z" fill="#C9AD48"/>
<path d="M74.5 170.875C77 171 77 171 78 172C78.0406 173.666 78.0427 175.334 78 177C75.6875 177.625 75.6875 177.625 73 178C72.01 177.34 71.02 176.68 70 176C71.1191 171.044 71.1191 171.044 74.5 170.875Z" fill="#C4A948"/>
<path d="M95 305C95.66 305.33 96.32 305.66 97 306C96.5527 306.508 96.1054 307.016 95.6445 307.539C95.04 308.227 94.4354 308.916 93.8125 309.625C93.1744 310.349 92.5363 311.074 91.8789 311.82C90.2783 313.677 88.7598 315.57 87.25 317.5C86.5075 318.325 85.765 319.15 85 320C84.01 320 83.02 320 82 320C83.6101 315.926 86.5382 313.235 89.625 310.25C90.1406 309.743 90.6562 309.237 91.1875 308.715C92.4538 307.472 93.7263 306.235 95 305Z" fill="#C9AD49"/>
<path d="M366 392C367.033 394.788 367.045 395.868 366.062 398.75C365.712 399.492 365.361 400.235 365 401C364.67 400.01 364.34 399.02 364 398C362.02 398.33 360.04 398.66 358 399C358.38 396.245 358.807 395.18 360.875 393.25C363 392 363 392 366 392Z" fill="#474837"/>
<path d="M342 76C343.65 76.33 345.3 76.66 347 77C347.382 78.6561 347.714 80.3246 348 82C347 83 347 83 344.437 83.0625C343.231 83.0316 343.231 83.0316 342 83C340.955 79.8665 341.066 79.0103 342 76Z" fill="#D3B54A"/>
<path d="M273 55C274.405 58.8906 273.695 62.2309 273.062 66.25C272.868 67.5133 272.673 68.7766 272.473 70.0781C272.317 71.0423 272.161 72.0066 272 73C273.32 73 274.64 73 276 73C276.33 72.34 276.66 71.68 277 71C277 72.32 277 73.64 277 75C274.69 75 272.38 75 270 75C270.486 68.1518 271.36 61.6696 273 55Z" fill="#7C723E"/>
<path d="M294 161C294.66 161.66 295.32 162.32 296 163C295.406 162.988 294.811 162.977 294.199 162.965C286.039 162.876 277.996 163.292 270 165C271.873 162.308 273.114 161.977 276.375 161.313C282.198 160.791 288.174 160.513 294 161Z" fill="#9D8B43"/>
<path d="M395 109C395.66 109 396.32 109 397 109C397 110.32 397 111.64 397 113C394.086 113.699 391.169 114.384 388.25 115.062C387.425 115.262 386.6 115.461 385.75 115.666C384.951 115.85 384.152 116.033 383.328 116.223C382.228 116.482 382.228 116.482 381.106 116.746C378.799 117.024 377.201 116.698 375 116C378.541 113.876 381.95 113.535 386 113C386.33 112.67 386.66 112.34 387 112C388.519 111.928 390.042 111.916 391.562 111.938C392.389 111.947 393.215 111.956 394.066 111.965C394.704 111.976 395.343 111.988 396 112C395.67 111.01 395.34 110.02 395 109Z" fill="#7C713E"/>
<path d="M392 352C393.32 352.33 394.64 352.66 396 353C396 353.99 396 354.98 396 356C395.34 356 394.68 356 394 356C394 356.99 394 357.98 394 359C392.68 359 391.36 359 390 359C387.799 359.933 387.799 359.933 386 361C387.527 357.564 389.599 354.881 392 352Z" fill="#575539"/>
<path d="M402 226C402.33 226 402.66 226 403 226C404.019 231.849 404.118 237.509 404.062 243.438C404.058 244.36 404.053 245.282 404.049 246.232C404.037 248.488 404.021 250.744 404 253C403.01 252.34 402.02 251.68 401 251C401.163 250.443 401.326 249.886 401.494 249.312C402.043 246.805 402.113 244.58 402.098 242.016C402.094 241.081 402.091 240.146 402.088 239.184C402.08 238.216 402.071 237.247 402.062 236.25C402.058 235.266 402.053 234.283 402.049 233.27C402.037 230.846 402.021 228.423 402 226Z" fill="#978742"/>
<path d="M234 103C234 103.33 234 103.66 234 104C232.138 104.307 232.138 104.307 230.238 104.621C228.596 104.893 226.954 105.165 225.312 105.438C224.088 105.64 224.088 105.64 222.838 105.846C218.878 106.503 214.93 107.176 211 108C216.566 101.651 226.235 102.739 234 103Z" fill="#E99F45"/>
<path d="M367.438 84.8125C370 85 370 85 372 87C372 88.32 372 89.64 372 91C370.02 91.99 370.02 91.99 368 93C368.66 91.02 369.32 89.04 370 87C366.04 88.98 366.04 88.98 362 91C364.287 85.0549 364.287 85.0549 367.438 84.8125Z" fill="#7B713E"/>
<path d="M118 103C118.99 103.33 119.98 103.66 121 104C120.67 105.32 120.34 106.64 120 108C119.34 107.34 118.68 106.68 118 106C117.257 106.66 116.515 107.32 115.75 108C113 110 113 110 109 110C108.67 108.35 108.34 106.7 108 105C108.66 104.67 109.32 104.34 110 104C110.33 104.99 110.66 105.98 111 107C114.27 106.436 115.826 105.5 118 103Z" fill="#948341"/>
<path d="M177 64C178.666 63.9573 180.334 63.9594 182 64C183 65 183 65 183.062 67.5625C183.042 68.3669 183.021 69.1713 183 70C181.35 69.67 179.7 69.34 178 69C177.67 67.35 177.34 65.7 177 64Z" fill="#D3B54A"/>
<path d="M173 410C178.75 410.75 178.75 410.75 181 413C180.01 413 179.02 413 178 413C178 415.31 178 417.62 178 420C177.01 419.67 176.02 419.34 175 419C175.66 419 176.32 419 177 419C176.733 417.015 176.733 417.015 176 415C175.01 414.67 174.02 414.34 173 414C173 412.68 173 411.36 173 410Z" fill="#CBAE49"/>
<path d="M331 311C331 311.66 331 312.32 331 313C324.422 313.955 318.582 313.893 312 313C312 312.67 312 312.34 312 312C318.347 311.416 324.624 310.855 331 311Z" fill="#68623C"/>
<path d="M132 297C131.34 298.98 130.68 300.96 130 303C132.31 303 134.62 303 137 303C137 303.66 137 304.32 137 305C135.742 304.876 134.484 304.753 133.188 304.625C132.126 304.521 132.126 304.521 131.043 304.414C129 304 129 304 126 302C126 301.01 126 300.02 126 299C129.75 297 129.75 297 132 297Z" fill="#AEB2B3"/>
<path d="M313 57C313.99 57.33 314.98 57.66 316 58C314.569 59.4852 313.13 60.963 311.688 62.4375C310.887 63.2612 310.086 64.0849 309.262 64.9336C307 67 307 67 304 68C305.408 64.7848 307.103 62.6782 309.625 60.25C310.257 59.6364 310.888 59.0228 311.539 58.3906C312.021 57.9317 312.503 57.4728 313 57Z" fill="#515039"/>
<path d="M308 421C308 422.32 308 423.64 308 425C306.35 425.33 304.7 425.66 303 426C302.67 427.32 302.34 428.64 302 430C302.021 429.051 302.041 428.102 302.062 427.125C302.226 424.093 302.226 424.093 301 422C304 421 304 421 308 421Z" fill="#515039"/>
<path d="M93 362C94.32 362 95.64 362 97 362C97.66 363.98 98.32 365.96 99 368C97.68 367.67 96.36 367.34 95 367C94.67 367.99 94.34 368.98 94 370C93 369 93 369 92.9375 365.438C92.9581 364.303 92.9787 363.169 93 362Z" fill="#615C3B"/>
<path d="M264 306C264.66 307.32 265.32 308.64 266 310C268.31 310 270.62 310 273 310C273 310.66 273 311.32 273 312C275.31 312 277.62 312 280 312C280 312.33 280 312.66 280 313C273.567 313.121 267.382 312.824 261 312C261.99 311.67 262.98 311.34 264 311C264 309.35 264 307.7 264 306Z" fill="#922B2F"/>
<path d="M199 275C199.33 275.99 199.66 276.98 200 278C199.34 278 198.68 278 198 278C198 277.34 198 276.68 198 276C195.006 276.469 195.006 276.469 192 278C190.54 281.525 190.54 281.525 190 285C188 283 188 283 187.625 280.563C188 278 188 278 189.562 276.188C192.804 274.608 195.443 274.795 199 275Z" fill="#545244"/>
<path d="M287 189C288.65 189 290.3 189 292 189C292.688 191.312 292.688 191.312 293 194C291.688 195.812 291.688 195.812 290 197C289.34 197 288.68 197 288 197C288.66 195.02 289.32 193.04 290 191C289.01 191 288.02 191 287 191C287 190.34 287 189.68 287 189Z" fill="#2E2D32"/>
<path d="M264 167C264.66 167.33 265.32 167.66 266 168C262.04 171.96 258.08 175.92 254 180C254 175.418 256.916 173.182 260 170C262.375 168.062 262.375 168.062 264 167Z" fill="#535139"/>
<path d="M323 421C325.97 421 328.94 421 332 421C332 422.32 332 423.64 332 425C330.02 425.33 328.04 425.66 326 426C326 425.34 326 424.68 326 424C325.01 423.67 324.02 423.34 323 423C323 422.34 323 421.68 323 421Z" fill="#535139"/>
<path d="M306 413C306 414.65 306 416.3 306 418C304.35 418 302.7 418 301 418C301 417.34 301 416.68 301 416C299.35 416 297.7 416 296 416C296 415.67 296 415.34 296 415C302.625 413 302.625 413 306 413Z" fill="#555339"/>
<path d="M157 93C157.66 93.33 158.32 93.66 159 94C157.625 96 157.625 96 156 98C155.34 98 154.68 98 154 98C154.062 99.4231 154.062 99.4231 154.125 100.875C154 104 154 104 152 106C149.875 105.625 149.875 105.625 148 105C148.959 104.722 148.959 104.722 149.938 104.438C150.618 103.963 151.299 103.489 152 103C152.339 100.668 152.672 98.3341 153 96C155.062 94.0625 155.062 94.0625 157 93Z" fill="#B19A45"/>
<path d="M281 54C282.98 54.495 282.98 54.495 285 55C285.562 56.9375 285.562 56.9375 286 59C285 60 285 60 282.438 60.0625C281.231 60.0316 281.231 60.0316 280 60C280.33 58.02 280.66 56.04 281 54Z" fill="#EAC74D"/>
<path d="M228 274C226.592 277.215 224.897 279.322 222.375 281.75C221.428 282.67 221.428 282.67 220.461 283.609C219.738 284.298 219.738 284.298 219 285C219 281.26 219.934 280.547 222.375 277.812C223.001 277.097 223.628 276.382 224.273 275.645C226 274 226 274 228 274Z" fill="#515038"/>
<path d="M312 67C312.66 67 313.32 67 314 67C314 69.31 314 71.62 314 74C312.35 73.67 310.7 73.34 309 73C309.573 70.1328 309.861 69.1385 312 67Z" fill="#BAA246"/>
<path d="M265 305C265.99 305 266.98 305 268 305C268 305.99 268 306.98 268 308C268.99 308 269.98 308 271 308C271 308.99 271 309.98 271 311C269.334 311.043 267.666 311.041 266 311C265 310 265 310 264.938 307.438C264.958 306.633 264.979 305.829 265 305Z" fill="#2E2D32"/>
<path d="M415 169C417.31 169 419.62 169 422 169C421.67 169.99 421.34 170.98 421 172C420.34 172 419.68 172 419 172C419 172.66 419 173.32 419 174C418.01 174 417.02 174 416 174C415.67 172.35 415.34 170.7 415 169Z" fill="#BAA246"/>
<path d="M351 130C352.129 130.933 353.253 131.871 354.375 132.812C355.001 133.335 355.628 133.857 356.273 134.395C358 136 358 136 360 139C358.68 139.33 357.36 139.66 356 140C355.161 138.712 354.329 137.419 353.5 136.125C353.036 135.406 352.572 134.686 352.094 133.945C351 132 351 132 351 130Z" fill="#B9A146"/>
<path d="M231 56C233 57.8125 233 57.8125 235 60C235 60.99 235 61.98 235 63C233.35 63 231.7 63 230 63C230.33 60.69 230.66 58.38 231 56Z" fill="#C1A747"/>
<path d="M167 259C165.417 263.274 162.494 265.265 159 268C159 265 159 265 160.242 263.395C161.05 262.611 161.05 262.611 161.875 261.812C162.409 261.283 162.942 260.753 163.492 260.207C165 259 165 259 167 259Z" fill="#505038"/>
<path d="M136 388C136.33 388.99 136.66 389.98 137 391C135.625 392.5 135.625 392.5 134 394C133.34 394 132.68 394 132 394C130.515 394.99 130.515 394.99 129 396C129.125 394.25 129.125 394.25 130 392C133.062 389.75 133.062 389.75 136 388Z" fill="#393D35"/>
<path d="M438 213C438.66 213.33 439.32 213.66 440 214C438.715 215.339 437.421 216.671 436.125 218C435.406 218.742 434.686 219.485 433.945 220.25C432 222 432 222 430 222C431.583 217.726 434.506 215.735 438 213Z" fill="#5A573A"/>
<path d="M404 130C405.5 131.312 405.5 131.312 407 133C407 133.99 407 134.98 407 136C404.36 136 401.72 136 399 136C399 135.34 399 134.68 399 134C400.98 134 402.96 134 405 134C404.67 132.68 404.34 131.36 404 130Z" fill="#CAAD49"/>
<path d="M405 123C405.99 123.33 406.98 123.66 408 124C408 124.66 408 125.32 408 126C407.01 126.33 406.02 126.66 405 127C404.67 127.66 404.34 128.32 404 129C404.66 129 405.32 129 406 129C405.67 129.66 405.34 130.32 405 131C403.5 129.688 403.5 129.688 402 128C402 127.01 402 126.02 402 125C402.99 124.34 403.98 123.68 405 123Z" fill="#69633C"/>
<path d="M267 193C267.33 193.66 267.66 194.32 268 195C268.99 195 269.98 195 271 195C270.67 195.99 270.34 196.98 270 198C267.938 198.688 267.938 198.688 266 199C266 197.68 266 196.36 266 195C265.34 194.67 264.68 194.34 264 194C264.99 193.67 265.98 193.34 267 193Z" fill="#902B2E"/>
<path d="M380 96C380.99 96 381.98 96 383 96C383.33 96.99 383.66 97.98 384 99C383.01 99.66 382.02 100.32 381 101C380.67 101.66 380.34 102.32 380 103C379.34 102.34 378.68 101.68 378 101C378.536 97.4643 378.536 97.4643 380 96Z" fill="#625E3B"/>
<path d="M101 357C102.203 359.405 102.101 360.95 102.062 363.625C102.053 364.442 102.044 365.26 102.035 366.102C102.024 366.728 102.012 367.355 102 368C100.68 367.67 99.36 367.34 98 367C98 366.34 98 365.68 98 365C98.66 365 99.32 365 100 365C99.9794 363.866 99.9588 362.731 99.9375 361.562C100 358 100 358 101 357Z" fill="#D7B84A"/>
<path d="M230 301C230.33 301.99 230.66 302.98 231 304C232.32 304 233.64 304 235 304C235 304.66 235 305.32 235 306C232.69 306 230.38 306 228 306C228.875 302.125 228.875 302.125 230 301Z" fill="#2D2D32"/>
<path d="M229 299C232 300 232 300 233 302C233.66 302.33 234.32 302.66 235 303C233.68 303.33 232.36 303.66 231 304C230.67 303.34 230.34 302.68 230 302C229.01 302.99 228.02 303.98 227 305C227.875 300.125 227.875 300.125 229 299Z" fill="#592C30"/>
<path d="M176 82C176.412 82.4744 176.825 82.9488 177.25 83.4375C179.182 85.1627 180.482 85.5658 183 86C183.33 84.68 183.66 83.36 184 82C184 83.65 184 85.3 184 87C182.02 87.33 180.04 87.66 178 88C177.34 86.02 176.68 84.04 176 82Z" fill="#766D3E"/>
<path d="M202 51C204.063 51.4375 204.063 51.4375 206 52C204.515 52.99 204.515 52.99 203 54C202.636 56.4369 202.636 56.4369 202.813 59.125C202.84 60.0351 202.867 60.9452 202.895 61.8828C202.929 62.5815 202.964 63.2802 203 64C200.887 60.8306 200.748 60.0037 200.813 56.375C200.822 55.18 200.822 55.18 200.832 53.9609C201 52 201 52 202 51Z" fill="#68623C"/>
<path d="M304 197C304.33 197.99 304.66 198.98 305 200C305.66 200 306.32 200 307 200C307 200.99 307 201.98 307 203C305.68 203 304.36 203 303 203C303 202.01 303 201.02 303 200C302.01 199.67 301.02 199.34 300 199C301.32 199 302.64 199 304 199C304 198.34 304 197.68 304 197Z" fill="#932B2E"/>
<path d="M296 181C297.32 181 298.64 181 300 181C300 181.99 300 182.98 300 184C300.66 184.33 301.32 184.66 302 185C300.35 184.67 298.7 184.34 297 184C296.34 184.99 295.68 185.98 295 187C295.33 185.02 295.66 183.04 296 181Z" fill="#5A2C31"/>
<path d="M151 84C152.98 84.99 152.98 84.99 155 86C155 86.99 155 87.98 155 89C154.01 89.33 153.02 89.66 152 90C151.67 88.02 151.34 86.04 151 84Z" fill="#D1B34A"/>
<path d="M306 425C306.66 425.33 307.32 425.66 308 426C307.67 426.33 307.34 426.66 307 427C307.99 427.66 308.98 428.32 310 429C307.69 429.33 305.38 429.66 303 430C303 428.68 303 427.36 303 426C303.99 425.67 304.98 425.34 306 425Z" fill="#D3B54A"/>
<path d="M213.125 422.875C214.074 422.916 215.023 422.957 216 423C213.668 424.206 211.504 425.165 209 426C209 427.98 209 429.96 209 432C208.67 432 208.34 432 208 432C207.875 428.625 207.875 428.625 208 425C210 423 210 423 213.125 422.875Z" fill="#C1A747"/>
<path d="M263 287C263.33 287.99 263.66 288.98 264 290C264.99 290 265.98 290 267 290C267 290.66 267 291.32 267 292C265.02 292 263.04 292 261 292C261.875 288.125 261.875 288.125 263 287Z" fill="#2A2D32"/>
<path d="M278 176C278 176.99 278 177.98 278 179C278.66 179 279.32 179 280 179C280 179.66 280 180.32 280 181C278.68 181.33 277.36 181.66 276 182C276 180.68 276 179.36 276 178C275.34 177.67 274.68 177.34 274 177C276 176 276 176 278 176Z" fill="#A22A2E"/>
<path d="M95 130C95.66 130 96.32 130 97 130C97.33 131.65 97.66 133.3 98 135C97.01 134.67 96.02 134.34 95 134C92.8328 134.875 92.8328 134.875 91 136C92.1517 133.532 93.0478 131.952 95 130Z" fill="#B9A146"/>
<path d="M304 115C304.66 115.33 305.32 115.66 306 116C305.361 116.722 304.721 117.444 304.062 118.188C302.013 120.982 301.387 122.617 301 126C300.67 126 300.34 126 300 126C299.634 122.062 299.698 120.435 302 117.125C302.66 116.424 303.32 115.723 304 115Z" fill="#CBAF50"/>
<path d="M377 369C378.938 369.375 378.938 369.375 381 370C381.33 370.66 381.66 371.32 382 372C380.68 371.67 379.36 371.34 378 371C378.33 372.32 378.66 373.64 379 375C378.01 374.34 377.02 373.68 376 373C376.33 371.68 376.66 370.36 377 369Z" fill="#5B583A"/>
</svg>
